<?xml version="1.0" encoding="UTF-8"?>
<svg id="Capa_2" data-name="Capa 2" xmlns="http://www.w3.org/2000/svg" viewBox="0 0 420.98 105.09">
  <defs>
    <style>
      .cls-1 {
        fill: #1a92ef;
      }
    </style>
  </defs>
  <g id="Layer_1" data-name="Layer 1">
    <g>
      <g>
        <path class="cls-1" d="M140.75,91.29V30.98c0-.96-.78-1.73-1.73-1.73h-19.34c-.96,0-1.73-.78-1.73-1.73v-10.26c0-.96.78-1.73,1.73-1.73h57.39c.96,0,1.73.78,1.73,1.73v10.26c0,.96-.78,1.73-1.73,1.73h-19.29c-.96,0-1.73.78-1.73,1.73v60.31c0,.96-.78,1.73-1.73,1.73h-11.83c-.96,0-1.73-.78-1.73-1.73Z"/>
        <path class="cls-1" d="M192.72,94c-6.27,0-11.17-1.69-14.7-5.08-3.6-3.24-5.4-7.51-5.4-12.81s1.95-9.91,5.84-13.08c3.86-3.17,9.66-4.76,17.4-4.76,5.12,0,9.39.59,12.81,1.78v-4.97c0-2.56-.81-4.59-2.43-6.11-1.66-1.55-4.16-2.32-7.51-2.32-3.1,0-5.46.7-7.08,2.11-1.33,1.16-2.14,2.5-2.42,4.01-.14.77-.88,1.28-1.66,1.28h-10.58c-.99,0-1.82-.83-1.74-1.82.4-4.91,2.47-8.99,6.2-12.23,4.11-3.68,9.98-5.51,17.62-5.51s13.66,1.87,17.94,5.62c4.36,3.93,6.54,8.86,6.54,14.81v36.37c0,.96-.78,1.73-1.73,1.73h-10.02c-.83,0-1.55-.59-1.7-1.41l-.87-4.59h-.43c-3.57,4.65-8.92,6.97-16.05,6.97ZM196.29,82.27c3.78,0,6.81-1.03,9.08-3.08,2.2-2.09,3.3-4.59,3.3-7.51v-1.24c-3.24-1.26-7.04-1.89-11.4-1.89-3.17,0-5.6.63-7.3,1.89-1.77,1.23-2.65,2.88-2.65,4.97s.77,3.8,2.32,5.03c1.55,1.23,3.76,1.84,6.65,1.84Z"/>
        <path class="cls-1" d="M252.15,94c-8.11,0-14.27-1.84-18.48-5.51-3.79-3.3-5.92-7.62-6.39-12.96-.09-.99.75-1.85,1.74-1.85h11.35c.81,0,1.59.53,1.72,1.33.28,1.71,1.13,3.14,2.54,4.29,1.8,1.48,4.31,2.22,7.51,2.22,2.92,0,5.28-.52,7.08-1.57,1.66-.97,2.49-2.22,2.49-3.73,0-2.85-2.22-4.7-6.65-5.57l-9.3-1.73c-11.24-2.13-16.86-7.96-16.86-17.51,0-4.9,2.07-8.95,6.22-12.16,4.07-3.17,9.64-4.76,16.7-4.76s12.79,1.77,17.08,5.3c3.78,3.21,5.88,7.21,6.3,12.02.09.99-.75,1.82-1.74,1.82h-11.21c-.8,0-1.54-.54-1.67-1.32-.26-1.52-1-2.85-2.21-3.97-1.66-1.33-3.91-2-6.76-2-2.56,0-4.54.47-5.95,1.41-1.48.97-2.22,2.23-2.22,3.78,0,2.7,1.95,4.43,5.84,5.19l10.54,1.89c5.22.97,9.35,2.81,12.38,5.51,2.95,2.63,4.43,6.63,4.43,12s-2.29,9.93-6.86,13.13c-4.5,3.17-10.38,4.76-17.62,4.76Z"/>
        <path class="cls-1" d="M310.48,61.06c-.58.64-.6,1.6-.06,2.26l23.43,28.62v1.08h-17c-.53,0-1.03-.24-1.36-.66l-16.98-21.44c-1.02-1.29-3.09-.57-3.09,1.08v19.29c0,.96-.78,1.73-1.73,1.73h-10.59c-.96,0-1.73-.78-1.73-1.73V12.82c0-.96.78-1.73,1.73-1.73h10.59c.96,0,1.73.78,1.73,1.73v40.49c0,1.59,1.96,2.34,3.02,1.16l16.51-18.43c.33-.37.8-.58,1.29-.58h16.47v1.14l-22.23,24.46Z"/>
        <path class="cls-1" d="M356.52,94c-8.65,0-15.44-2.79-20.38-8.38-4.94-5.48-7.4-12.56-7.4-21.24s2.4-15.85,7.19-21.51c4.72-5.58,11.49-8.38,20.32-8.38s14.97,2.65,19.73,7.94c4.72,5.26,7.08,11.98,7.08,20.16v4c0,.96-.78,1.73-1.73,1.73h-35.6c-1,0-1.84.86-1.73,1.86.35,3.3,1.43,5.94,3.23,7.93,2.09,2.41,5.19,3.62,9.3,3.62,5.53,0,9.14-1.85,10.82-5.55.29-.64.88-1.1,1.59-1.1h11.26c1.09,0,1.97,1.01,1.71,2.07-1.1,4.44-3.67,8.25-7.7,11.44-4.54,3.6-10.43,5.4-17.67,5.4ZM345.89,58.49h20.14c1.02,0,1.88-.88,1.73-1.89-.38-2.58-1.37-4.76-2.97-6.54-2.02-2.13-4.86-3.19-8.54-3.19-3.93,0-6.9,1.06-8.92,3.19-1.69,1.69-2.74,3.81-3.16,6.36-.18,1.07.63,2.07,1.72,2.07Z"/>
        <path class="cls-1" d="M387.79,91.29v-54.1c0-.96.78-1.73,1.73-1.73h9.23c.87,0,1.61.65,1.72,1.51l.94,7.25h.43c2.95-6.41,7.94-9.62,14.97-9.62h4.16v12c0,.96-.78,1.73-1.73,1.73h-3.46c-4.43,0-7.86,1.42-10.27,4.27-2.45,2.88-3.68,6.95-3.68,12.21v26.48c0,.96-.78,1.73-1.73,1.73h-10.59c-.96,0-1.73-.78-1.73-1.73Z"/>
      </g>
      <g>
        <circle class="cls-1" cx="33.65" cy="11.2" r="10.22" transform="translate(1.26 25.66) rotate(-42.47)"/>
        <circle class="cls-1" cx="16.33" cy="27.32" r="9.84" transform="translate(-14.17 18.19) rotate(-42.47)"/>
        <circle class="cls-1" cx="9.45" cy="49.87" r="9.45" transform="translate(-31.2 19.47) rotate(-42.47)"/>
        <circle class="cls-1" cx="14.97" cy="73.13" r="9.06" transform="translate(-45.45 29.3) rotate(-42.47)"/>
        <circle class="cls-1" cx="31.2" cy="90.17" r="8.67" transform="translate(-52.7 44.73) rotate(-42.47)"/>
        <circle class="cls-1" cx="53.77" cy="96.81" r="8.28" transform="translate(-51.26 61.71) rotate(-42.47)"/>
        <circle class="cls-1" cx="75.7" cy="91.02" r="7.89" transform="translate(-41.59 75) rotate(-42.47)"/>
        <circle class="cls-1" cx="93.96" cy="74.53" r="7.5" transform="translate(-25.67 83) rotate(-42.47)"/>
        <circle class="cls-1" cx="100.31" cy="51.84" r="7.11" transform="translate(-8.69 81.33) rotate(-42.47)"/>
        <circle class="cls-1" cx="94.3" cy="28.82" r="6.72" transform="translate(5.29 71.24) rotate(-42.47)"/>
        <circle class="cls-1" cx="77.64" cy="12.07" r="6.33" transform="translate(12.22 55.59) rotate(-42.47)"/>
        <circle class="cls-1" cx="54.8" cy="5.94" r="5.94" transform="translate(10.37 38.56) rotate(-42.47)"/>
      </g>
    </g>
  </g>
</svg>