<?xml version="1.0" encoding="UTF-8"?>
<svg id="Capa_2" data-name="Capa 2" xmlns="http://www.w3.org/2000/svg" viewBox="0 0 419.68 104.76">
  <defs>
    <style>
      .cls-1 {
        fill: #07395b;
      }
    </style>
  </defs>
  <g id="Layer_1" data-name="Layer 1">
    <g>
      <g>
        <path class="cls-1" d="M140.31,91.01V30.89c0-.95-.77-1.73-1.73-1.73h-19.28c-.95,0-1.73-.77-1.73-1.73v-10.23c0-.95.77-1.73,1.73-1.73h57.22c.95,0,1.73.77,1.73,1.73v10.23c0,.95-.77,1.73-1.73,1.73h-19.23c-.95,0-1.73.77-1.73,1.73v60.12c0,.95-.77,1.73-1.73,1.73h-11.8c-.95,0-1.73-.77-1.73-1.73Z"/>
        <path class="cls-1" d="M192.12,93.71c-6.25,0-11.14-1.69-14.66-5.06-3.59-3.23-5.39-7.49-5.39-12.77s1.94-9.88,5.82-13.04c3.84-3.16,9.63-4.74,17.35-4.74,5.1,0,9.36.59,12.77,1.78v-4.96c0-2.55-.81-4.58-2.42-6.09-1.65-1.54-4.15-2.32-7.49-2.32-3.09,0-5.44.7-7.06,2.1-1.33,1.16-2.13,2.49-2.42,4-.14.77-.88,1.28-1.66,1.28h-10.55c-.99,0-1.82-.83-1.74-1.81.4-4.89,2.46-8.96,6.18-12.2,4.09-3.66,9.95-5.5,17.56-5.5s13.61,1.87,17.89,5.6c4.35,3.92,6.52,8.84,6.52,14.76v36.26c0,.95-.77,1.73-1.73,1.73h-9.99c-.83,0-1.54-.59-1.7-1.41l-.87-4.58h-.43c-3.56,4.63-8.89,6.95-16,6.95ZM195.68,82.02c3.77,0,6.79-1.02,9.05-3.07,2.19-2.08,3.29-4.58,3.29-7.49v-1.24c-3.23-1.26-7.02-1.89-11.37-1.89-3.16,0-5.59.63-7.27,1.89-1.76,1.22-2.64,2.87-2.64,4.96s.77,3.79,2.32,5.01c1.54,1.22,3.75,1.83,6.63,1.83Z"/>
        <path class="cls-1" d="M251.37,93.71c-8.08,0-14.22-1.83-18.43-5.5-3.78-3.29-5.9-7.6-6.37-12.92-.09-.99.74-1.84,1.74-1.84h11.32c.81,0,1.58.53,1.71,1.33.28,1.7,1.13,3.13,2.53,4.28,1.8,1.47,4.29,2.21,7.49,2.21,2.91,0,5.26-.52,7.06-1.56,1.65-.97,2.48-2.21,2.48-3.72,0-2.84-2.21-4.69-6.63-5.55l-9.27-1.72c-11.21-2.12-16.81-7.94-16.81-17.46,0-4.88,2.07-8.93,6.2-12.12,4.06-3.16,9.61-4.74,16.65-4.74s12.75,1.76,17.03,5.28c3.77,3.2,5.87,7.19,6.28,11.98.09.98-.75,1.81-1.73,1.81h-11.18c-.79,0-1.53-.53-1.67-1.32-.26-1.52-1-2.84-2.21-3.96-1.65-1.33-3.9-1.99-6.73-1.99-2.55,0-4.53.47-5.93,1.4-1.47.97-2.21,2.23-2.21,3.77,0,2.69,1.94,4.42,5.82,5.17l10.51,1.89c5.21.97,9.32,2.8,12.34,5.5,2.94,2.62,4.42,6.61,4.42,11.96s-2.28,9.9-6.84,13.09c-4.49,3.16-10.34,4.74-17.56,4.74Z"/>
        <path class="cls-1" d="M309.51,60.87c-.58.63-.6,1.59-.06,2.25l23.36,28.53v1.08h-16.95c-.53,0-1.03-.24-1.35-.65l-16.93-21.37c-1.02-1.28-3.08-.56-3.08,1.07v19.23c0,.95-.77,1.73-1.73,1.73h-10.56c-.95,0-1.73-.77-1.73-1.73V12.78c0-.95.77-1.73,1.73-1.73h10.56c.95,0,1.73.77,1.73,1.73v40.37c0,1.58,1.95,2.33,3.01,1.15l16.46-18.37c.33-.37.79-.57,1.29-.57h16.42v1.13l-22.17,24.38Z"/>
        <path class="cls-1" d="M355.42,93.71c-8.62,0-15.39-2.78-20.31-8.35-4.92-5.46-7.38-12.52-7.38-21.17s2.39-15.8,7.17-21.44c4.71-5.57,11.46-8.35,20.26-8.35s14.92,2.64,19.67,7.92c4.71,5.24,7.06,11.94,7.06,20.1v3.98c0,.95-.77,1.73-1.73,1.73h-35.49c-1,0-1.83.86-1.73,1.85.35,3.29,1.43,5.93,3.22,7.9,2.08,2.41,5.17,3.61,9.27,3.61,5.51,0,9.11-1.85,10.78-5.54.29-.64.88-1.09,1.58-1.09h11.23c1.09,0,1.96,1.01,1.7,2.07-1.1,4.42-3.66,8.22-7.68,11.4-4.53,3.59-10.4,5.39-17.62,5.39ZM344.82,58.31h20.08c1.01,0,1.87-.88,1.72-1.88-.38-2.57-1.36-4.75-2.96-6.52-2.01-2.12-4.85-3.18-8.51-3.18-3.92,0-6.88,1.06-8.89,3.18-1.68,1.68-2.73,3.8-3.15,6.34-.17,1.07.62,2.07,1.71,2.07Z"/>
        <path class="cls-1" d="M386.59,91.01v-53.93c0-.95.77-1.73,1.73-1.73h9.2c.87,0,1.6.64,1.71,1.5l.94,7.22h.43c2.94-6.39,7.92-9.59,14.92-9.59h4.15v11.96c0,.95-.77,1.73-1.73,1.73h-3.45c-4.42,0-7.83,1.42-10.24,4.26-2.44,2.87-3.66,6.93-3.66,12.18v26.4c0,.95-.77,1.73-1.73,1.73h-10.56c-.95,0-1.73-.77-1.73-1.73Z"/>
      </g>
      <g>
        <circle class="cls-1" cx="33.54" cy="11.17" r="10.19" transform="translate(1.26 25.58) rotate(-42.47)"/>
        <circle class="cls-1" cx="16.27" cy="27.24" r="9.8" transform="translate(-14.12 18.14) rotate(-42.47)"/>
        <circle class="cls-1" cx="9.42" cy="49.72" r="9.42" transform="translate(-31.1 19.41) rotate(-42.47)"/>
        <circle class="cls-1" cx="14.93" cy="72.91" r="9.03" transform="translate(-45.31 29.21) rotate(-42.47)"/>
        <circle class="cls-1" cx="31.11" cy="89.89" r="8.64" transform="translate(-52.53 44.59) rotate(-42.47)"/>
        <circle class="cls-1" cx="53.6" cy="96.51" r="8.25" transform="translate(-51.1 61.52) rotate(-42.47)"/>
        <circle class="cls-1" cx="75.47" cy="90.74" r="7.86" transform="translate(-41.47 74.77) rotate(-42.47)"/>
        <circle class="cls-1" cx="93.67" cy="74.3" r="7.47" transform="translate(-25.59 82.75) rotate(-42.47)"/>
        <circle class="cls-1" cx="100" cy="51.68" r="7.08" transform="translate(-8.66 81.08) rotate(-42.47)"/>
        <circle class="cls-1" cx="94.01" cy="28.73" r="6.7" transform="translate(5.27 71.02) rotate(-42.47)"/>
        <circle class="cls-1" cx="77.4" cy="12.03" r="6.31" transform="translate(12.19 55.42) rotate(-42.47)"/>
        <circle class="cls-1" cx="54.63" cy="5.92" r="5.92" transform="translate(10.34 38.44) rotate(-42.47)"/>
      </g>
    </g>
  </g>
</svg>