<?xml version="1.0" encoding="UTF-8"?>
<svg id="Capa_2" data-name="Capa 2" xmlns="http://www.w3.org/2000/svg" viewBox="0 0 107.08 104.76">
  <defs>
    <style>
      .cls-1 {
        fill: #87f5e7;
      }
    </style>
  </defs>
  <g id="Layer_1" data-name="Layer 1">
    <g>
      <circle class="cls-1" cx="33.54" cy="11.17" r="10.19" transform="translate(1.26 25.58) rotate(-42.47)"/>
      <circle class="cls-1" cx="16.27" cy="27.24" r="9.8" transform="translate(-14.12 18.14) rotate(-42.47)"/>
      <circle class="cls-1" cx="9.42" cy="49.72" r="9.42" transform="translate(-31.1 19.41) rotate(-42.47)"/>
      <circle class="cls-1" cx="14.93" cy="72.91" r="9.03" transform="translate(-45.31 29.21) rotate(-42.47)"/>
      <circle class="cls-1" cx="31.11" cy="89.89" r="8.64" transform="translate(-52.53 44.59) rotate(-42.47)"/>
      <circle class="cls-1" cx="53.6" cy="96.51" r="8.25" transform="translate(-51.1 61.52) rotate(-42.47)"/>
      <circle class="cls-1" cx="75.47" cy="90.74" r="7.86" transform="translate(-41.47 74.77) rotate(-42.47)"/>
      <circle class="cls-1" cx="93.67" cy="74.3" r="7.47" transform="translate(-25.59 82.75) rotate(-42.47)"/>
      <circle class="cls-1" cx="100" cy="51.68" r="7.08" transform="translate(-8.66 81.08) rotate(-42.47)"/>
      <circle class="cls-1" cx="94.01" cy="28.73" r="6.7" transform="translate(5.27 71.02) rotate(-42.47)"/>
      <circle class="cls-1" cx="77.4" cy="12.03" r="6.31" transform="translate(12.19 55.42) rotate(-42.47)"/>
      <circle class="cls-1" cx="54.63" cy="5.92" r="5.92" transform="translate(10.34 38.44) rotate(-42.47)"/>
    </g>
  </g>
</svg>