<?xml version="1.0" encoding="UTF-8"?>
<svg id="Capa_2" data-name="Capa 2" xmlns="http://www.w3.org/2000/svg" viewBox="0 0 107.41 105.09">
  <defs>
    <style>
      .cls-1 {
        fill: #1a92ef;
      }
    </style>
  </defs>
  <g id="Layer_1" data-name="Layer 1">
    <g>
      <circle class="cls-1" cx="33.65" cy="11.2" r="10.22" transform="translate(1.26 25.66) rotate(-42.47)"/>
      <circle class="cls-1" cx="16.33" cy="27.32" r="9.84" transform="translate(-14.17 18.19) rotate(-42.47)"/>
      <circle class="cls-1" cx="9.45" cy="49.87" r="9.45" transform="translate(-31.2 19.47) rotate(-42.47)"/>
      <circle class="cls-1" cx="14.97" cy="73.13" r="9.06" transform="translate(-45.45 29.3) rotate(-42.47)"/>
      <circle class="cls-1" cx="31.2" cy="90.17" r="8.67" transform="translate(-52.7 44.73) rotate(-42.47)"/>
      <circle class="cls-1" cx="53.77" cy="96.81" r="8.28" transform="translate(-51.26 61.71) rotate(-42.47)"/>
      <circle class="cls-1" cx="75.7" cy="91.02" r="7.89" transform="translate(-41.59 75) rotate(-42.47)"/>
      <circle class="cls-1" cx="93.96" cy="74.53" r="7.5" transform="translate(-25.67 83) rotate(-42.47)"/>
      <circle class="cls-1" cx="100.31" cy="51.84" r="7.11" transform="translate(-8.69 81.33) rotate(-42.47)"/>
      <circle class="cls-1" cx="94.3" cy="28.82" r="6.72" transform="translate(5.29 71.24) rotate(-42.47)"/>
      <circle class="cls-1" cx="77.64" cy="12.07" r="6.33" transform="translate(12.22 55.59) rotate(-42.47)"/>
      <circle class="cls-1" cx="54.8" cy="5.94" r="5.94" transform="translate(10.37 38.56) rotate(-42.47)"/>
    </g>
  </g>
</svg>