<svg width="174" height="59" viewBox="0 0 174 59" fill="none" xmlns="http://www.w3.org/2000/svg">
<g clip-path="url(#clip0_174_98)">
<mask id="mask0_174_98" style="mask-type:luminance" maskUnits="userSpaceOnUse" x="0" y="0" width="174" height="59">
<path d="M173.513 0.941406H0V58.9414H173.513V0.941406Z" fill="white"/>
</mask>
<g mask="url(#mask0_174_98)">
<path d="M159.695 0.941409H13.8253C13.2936 0.941409 12.7682 0.941409 12.2379 0.944309C11.794 0.947209 11.3536 0.955633 10.9054 0.962724C9.9318 0.974181 8.96043 1.05984 7.99979 1.21895C7.04051 1.38153 6.11128 1.68804 5.24352 2.1281C4.37682 2.57189 3.5849 3.14855 2.89648 3.83716C2.20444 4.52383 1.62757 5.31753 1.18806 6.18774C0.74733 7.05622 0.441729 7.98687 0.281808 8.94755C0.120366 9.90703 0.0334927 10.8776 0.0219675 11.8504C0.0085115 12.295 0.0070905 12.7411 0 13.1857V46.7014C0.0070905 47.1516 0.0085115 47.5877 0.0219675 48.0381C0.0334962 49.011 0.120369 49.9814 0.281808 50.9409C0.441287 51.9021 0.746907 52.8333 1.18806 53.7021C1.62737 54.5695 2.20432 55.36 2.89648 56.0428C3.58229 56.7345 4.37473 57.3116 5.24352 57.7519C6.11127 58.1932 7.0404 58.5015 7.99979 58.6666C8.96059 58.8245 9.93186 58.9101 10.9054 58.923C11.3536 58.9328 11.794 58.9385 12.2379 58.9385C12.7682 58.9414 13.2936 58.9414 13.8253 58.9414H159.695C160.217 58.9414 160.746 58.9414 161.267 58.9385C161.709 58.9385 162.162 58.9328 162.604 58.923C163.576 58.9108 164.545 58.8251 165.504 58.6666C166.466 58.5004 167.399 58.1921 168.271 57.7519C169.139 57.3113 169.931 56.7343 170.616 56.0428C171.306 55.3573 171.884 54.5674 172.329 53.7021C172.767 52.8327 173.07 51.9016 173.227 50.9409C173.389 49.9813 173.478 49.011 173.496 48.0381C173.502 47.5877 173.502 47.1516 173.502 46.7014C173.513 46.1746 173.513 45.6507 173.513 45.1153V14.7688C173.513 14.2378 173.513 13.711 173.502 13.1857C173.502 12.7411 173.502 12.295 173.496 11.8504C173.478 10.8774 173.389 9.9071 173.227 8.9475C173.069 7.98737 172.767 7.05679 172.329 6.18768C171.434 4.44344 170.015 3.02365 168.271 2.12797C167.399 1.68898 166.466 1.38256 165.504 1.21882C164.545 1.05901 163.576 0.97332 162.604 0.962521C162.162 0.955445 161.709 0.946948 161.267 0.94412C160.746 0.94122 160.217 0.941409 159.695 0.941409Z" fill="#A6A6A6"/>
<path d="M12.2448 57.6725C11.803 57.6725 11.3719 57.6668 10.9335 57.6569C10.0255 57.6451 9.11964 57.5661 8.2233 57.4204C7.38751 57.2765 6.57785 57.0087 5.82102 56.626C5.07114 56.2464 4.3872 55.7487 3.79538 55.1519C3.19499 54.5622 2.69513 53.8782 2.31563 53.127C1.93194 52.3709 1.66642 51.5606 1.52829 50.7241C1.37912 49.8252 1.2984 48.9164 1.28685 48.0053C1.27766 47.6995 1.26562 46.6813 1.26562 46.6813V13.1855C1.26562 13.1855 1.27844 12.183 1.28693 11.8884C1.29798 10.9788 1.37822 10.0714 1.52694 9.17392C1.66533 8.33513 1.93107 7.5224 2.31497 6.76388C2.69307 6.01323 3.19015 5.32871 3.78692 4.73685C4.38302 4.13937 5.06916 3.63909 5.82032 3.25427C6.5754 2.87275 7.38352 2.60688 8.21762 2.46556C9.11691 2.31848 10.0259 2.23896 10.9371 2.22767L12.2455 2.20996H161.26L162.584 2.22838C163.487 2.23911 164.388 2.31792 165.279 2.46414C166.121 2.60723 166.938 2.87496 167.701 3.25852C169.206 4.03404 170.431 5.261 171.203 6.76742C171.581 7.5207 171.843 8.3268 171.979 9.15835C172.13 10.0632 172.214 10.9777 172.231 11.8948C172.235 12.3054 172.235 12.7465 172.235 13.1855C172.247 13.7292 172.247 14.2468 172.247 14.7686V45.1152C172.247 45.6419 172.247 46.156 172.235 46.6742C172.235 47.1457 172.235 47.5777 172.23 48.0223C172.213 48.923 172.13 49.8212 171.982 50.7098C171.847 51.5524 171.583 52.3691 171.199 53.1313C170.817 53.8743 170.32 54.5524 169.726 55.1406C169.134 55.7406 168.449 56.2412 167.697 56.6232C166.936 57.0089 166.12 57.2777 165.279 57.4204C164.382 57.5668 163.476 57.6459 162.568 57.6569C162.144 57.6668 161.699 57.6725 161.267 57.6725L159.695 57.6754L12.2448 57.6725Z" fill="black"/>
<path d="M35.9151 30.3773C35.9307 29.167 36.2522 27.9804 36.8496 26.9277C37.447 25.8751 38.301 24.9907 39.3321 24.3568C38.6771 23.4213 37.813 22.6514 36.8084 22.1083C35.8038 21.5652 34.6864 21.2639 33.5449 21.2281C31.11 20.9726 28.7495 22.6851 27.5087 22.6851C26.2439 22.6851 24.3335 21.2535 22.2764 21.2958C20.9458 21.3388 19.649 21.7258 18.5123 22.419C17.3757 23.1121 16.438 24.0879 15.7907 25.2513C12.9864 30.1065 15.0781 37.242 17.7644 41.1666C19.1084 43.0883 20.6792 45.235 22.7345 45.1589C24.7457 45.0754 25.4969 43.8764 27.9246 43.8764C30.3298 43.8764 31.0345 45.1589 33.1315 45.1105C35.2897 45.0754 36.6494 43.1802 37.9463 41.2402C38.9119 39.8709 39.655 38.3575 40.148 36.7561C38.8942 36.2258 37.8242 35.3381 37.0714 34.2038C36.3187 33.0694 35.9166 31.7386 35.9151 30.3773Z" fill="white"/>
<path d="M31.9546 18.6473C33.1313 17.2347 33.711 15.4191 33.5706 13.5859C31.7729 13.7748 30.1123 14.634 28.9196 15.9924C28.3365 16.656 27.8899 17.428 27.6054 18.2643C27.3208 19.1006 27.2039 19.9848 27.2613 20.8664C28.1605 20.8756 29.05 20.6807 29.863 20.2964C30.676 19.912 31.3911 19.3482 31.9546 18.6473Z" fill="white"/>
<path d="M61.3387 40.2935H54.4752L52.827 45.1604H49.9199L56.4209 27.1543H59.4412L65.9421 45.1604H62.9855L61.3387 40.2935ZM55.1861 38.0477H60.6265L57.9445 30.1492H57.8695L55.1861 38.0477Z" fill="white"/>
<path d="M79.9823 38.598C79.9823 42.6775 77.7988 45.2986 74.5038 45.2986C73.6691 45.3422 72.8389 45.15 72.1084 44.7438C71.3779 44.3376 70.7766 43.7338 70.3732 43.0018H70.3109V49.5041H67.6162V32.0333H70.2246V34.2168H70.2741C70.696 33.4882 71.3075 32.8877 72.0436 32.479C72.7796 32.0703 73.6127 31.8688 74.4542 31.896C77.786 31.896 79.9823 34.5298 79.9823 38.598ZM77.2126 38.598C77.2126 35.9401 75.839 34.1928 73.7433 34.1928C71.6845 34.1928 70.2996 35.9769 70.2996 38.598C70.2996 41.2431 71.6845 43.0145 73.7433 43.0145C75.8391 43.0145 77.2126 41.2799 77.2126 38.598Z" fill="white"/>
<path d="M94.4306 38.598C94.4306 42.6775 92.2471 45.2986 88.952 45.2986C88.1173 45.3422 87.2872 45.1499 86.5567 44.7437C85.8262 44.3375 85.2248 43.7338 84.8215 43.0018H84.7591V49.5041H82.0645V32.0333H84.6727V34.2168H84.7223C85.1442 33.4882 85.7557 32.8877 86.4918 32.479C87.2278 32.0703 88.0609 31.8688 88.9024 31.896C92.2343 31.896 94.4306 34.5297 94.4306 38.598ZM91.6608 38.598C91.6608 35.9401 90.2873 34.1927 88.1916 34.1927C86.1327 34.1927 84.7478 35.9769 84.7478 38.598C84.7478 41.2431 86.1327 43.0145 88.1916 43.0145C90.2873 43.0145 91.6608 41.2799 91.6608 38.598Z" fill="white"/>
<path d="M103.98 40.1439C104.18 41.9295 105.914 43.1019 108.285 43.1019C110.556 43.1019 112.19 41.9294 112.19 40.3194C112.19 38.9218 111.205 38.0849 108.871 37.5114L106.537 36.9493C103.231 36.1506 101.696 34.6043 101.696 32.0952C101.696 28.9884 104.404 26.8545 108.248 26.8545C112.053 26.8545 114.661 28.9884 114.749 32.0952H112.029C111.866 30.2982 110.38 29.2136 108.21 29.2136C106.039 29.2136 104.554 30.311 104.554 31.9083C104.554 33.1813 105.502 33.9303 107.823 34.5038L109.807 34.9909C113.501 35.8646 115.036 37.3486 115.036 39.9823C115.036 43.351 112.353 45.4609 108.085 45.4609C104.092 45.4609 101.396 43.4006 101.222 40.1437L103.98 40.1439Z" fill="white"/>
<path d="M120.853 28.9258V32.0325H123.349V34.1665H120.853V41.4037C120.853 42.528 121.352 43.0519 122.45 43.0519C122.746 43.0468 123.042 43.026 123.336 42.9896V45.1108C122.843 45.203 122.341 45.2447 121.839 45.2354C119.182 45.2354 118.145 44.2371 118.145 41.6911V34.1665H116.236V32.0325H118.145V28.9258H120.853Z" fill="white"/>
<path d="M124.795 38.5972C124.795 34.4666 127.228 31.8711 131.021 31.8711C134.827 31.8711 137.249 34.4666 137.249 38.5972C137.249 42.739 134.84 45.3232 131.021 45.3232C127.203 45.3232 124.795 42.739 124.795 38.5972ZM134.503 38.5972C134.503 35.7637 133.205 34.0914 131.021 34.0914C128.838 34.0914 127.541 35.7765 127.541 38.5972C127.541 41.4419 128.838 43.1015 131.021 43.1015C133.205 43.1015 134.503 41.4419 134.503 38.5972Z" fill="white"/>
<path d="M139.47 32.0332H142.04V34.2677H142.102C142.276 33.5698 142.685 32.9531 143.26 32.5211C143.835 32.0892 144.541 31.8684 145.26 31.8958C145.57 31.8947 145.88 31.9285 146.183 31.9964V34.5169C145.791 34.3971 145.382 34.3421 144.972 34.354C144.581 34.3382 144.191 34.4072 143.828 34.5564C143.466 34.7056 143.14 34.9314 142.874 35.2183C142.607 35.5053 142.405 35.8465 142.283 36.2187C142.161 36.5909 142.12 36.9851 142.164 37.3744V45.1611H139.47V32.0332Z" fill="white"/>
<path d="M158.608 41.3046C158.245 43.6877 155.924 45.3232 152.955 45.3232C149.136 45.3232 146.766 42.7645 146.766 38.6595C146.766 34.5417 149.149 31.8711 152.842 31.8711C156.474 31.8711 158.758 34.3661 158.758 38.3465V39.2698H149.486V39.4326C149.443 39.9157 149.503 40.4025 149.663 40.8604C149.823 41.3184 150.078 41.7371 150.412 42.0888C150.746 42.4405 151.151 42.7171 151.601 42.9003C152.05 43.0834 152.533 43.1689 153.017 43.1511C153.654 43.2107 154.293 43.0632 154.839 42.7306C155.386 42.3979 155.81 41.8977 156.049 41.3046H158.608ZM149.499 37.3865H156.062C156.086 36.9521 156.02 36.5173 155.868 36.1096C155.717 35.7018 155.482 35.3298 155.18 35.017C154.877 34.7041 154.514 34.4571 154.111 34.2915C153.709 34.1259 153.277 34.0452 152.842 34.0546C152.403 34.052 151.968 34.1363 151.562 34.3027C151.156 34.469 150.787 34.7142 150.476 35.0239C150.165 35.3337 149.919 35.702 149.751 36.1075C149.583 36.513 149.497 36.9476 149.499 37.3865Z" fill="white"/>
<path d="M54.8478 13.6006C55.4127 13.5601 55.9796 13.6454 56.5076 13.8505C57.0356 14.0556 57.5114 14.3753 57.9009 14.7865C58.2903 15.1978 58.5836 15.6904 58.7597 16.2287C58.9357 16.7671 58.9901 17.3378 58.9188 17.8997C58.9188 20.6637 57.425 22.2525 54.8478 22.2525H51.7227V13.6006H54.8478ZM53.0664 21.029H54.6977C55.1014 21.0531 55.5054 20.9869 55.8802 20.8352C56.2551 20.6835 56.5915 20.4502 56.8648 20.1521C57.1381 19.854 57.3415 19.4988 57.4602 19.1122C57.5789 18.7256 57.6099 18.3174 57.551 17.9173C57.6056 17.5188 57.5715 17.1131 57.451 16.7293C57.3305 16.3456 57.1265 15.9932 56.8538 15.6975C56.5812 15.4018 56.2464 15.1701 55.8737 15.019C55.5009 14.8678 55.0993 14.801 54.6977 14.8233H53.0664V21.029Z" fill="white"/>
<path d="M66.2823 20.4901C66.1073 21.0868 65.728 21.603 65.2108 21.9483C64.6936 22.2936 64.0714 22.4461 63.4531 22.3791C63.023 22.3904 62.5955 22.308 62.2004 22.1376C61.8052 21.9672 61.4519 21.7128 61.165 21.3922C60.878 21.0715 60.6642 20.6923 60.5385 20.2807C60.4128 19.8692 60.3782 19.4352 60.437 19.0089C60.3797 18.5814 60.415 18.1465 60.5404 17.7337C60.6658 17.3209 60.8784 16.9399 61.1639 16.6164C61.4494 16.293 61.801 16.0346 62.195 15.8589C62.5889 15.6831 63.0161 15.5941 63.4475 15.5978C65.2642 15.5978 66.3602 16.839 66.3602 18.8893V19.3389H61.7497V19.4111C61.7296 19.6507 61.7597 19.8919 61.8382 20.1192C61.9166 20.3465 62.0417 20.5549 62.2055 20.731C62.3692 20.9071 62.5679 21.047 62.7889 21.1419C63.0098 21.2367 63.2482 21.2843 63.4886 21.2816C63.7968 21.3186 64.1091 21.2631 64.3857 21.1222C64.6623 20.9812 64.8908 20.7612 65.042 20.4901H66.2823ZM61.7496 18.3859H65.0475C65.0638 18.1668 65.034 17.9467 64.9601 17.7397C64.8862 17.5328 64.7699 17.3436 64.6185 17.1843C64.4671 17.025 64.2841 16.8991 64.0812 16.8148C63.8783 16.7304 63.66 16.6894 63.4404 16.6945C63.2175 16.6917 62.9963 16.7335 62.7899 16.8176C62.5835 16.9016 62.396 17.0261 62.2384 17.1837C62.0808 17.3414 61.9564 17.5289 61.8725 17.7354C61.7886 17.9419 61.7467 18.1631 61.7496 18.3859Z" fill="white"/>
<path d="M70.4761 15.5977C71.9445 15.5977 72.9045 16.281 73.0306 17.4322H71.7944C71.6755 16.9529 71.2067 16.647 70.4761 16.647C69.7567 16.647 69.2102 16.9883 69.2102 17.498C69.2102 17.8881 69.5402 18.1338 70.2482 18.296L71.3328 18.5473C72.5746 18.8355 73.1566 19.3693 73.1566 20.3287C73.1566 21.5578 72.0111 22.3791 70.452 22.3791C68.8986 22.3791 67.8862 21.6774 67.7715 20.5205H69.0615C69.1726 20.7959 69.3731 21.0259 69.6306 21.1737C69.8882 21.3215 70.1879 21.3784 70.4817 21.3354C71.2846 21.3354 71.8553 20.9758 71.8553 20.454C71.8553 20.0646 71.5494 19.8125 70.8952 19.6567L69.7567 19.3927C68.5149 19.0988 67.94 18.5416 67.94 17.5702C67.94 16.4127 69.0006 15.5977 70.4761 15.5977Z" fill="white"/>
<path d="M79.1681 17.8577C79.0859 17.5191 78.8852 17.2212 78.6024 17.0178C78.3195 16.8144 77.9732 16.719 77.626 16.7489C76.547 16.7489 75.8872 17.5759 75.8872 18.9671C75.8872 20.3824 76.5527 21.2278 77.626 21.2278C77.9697 21.2676 78.3161 21.1805 78.6001 20.9829C78.8841 20.7852 79.0861 20.4906 79.1681 20.1545H80.4213C80.3384 20.8156 80.0005 21.4182 79.4796 21.8338C78.9588 22.2494 78.2962 22.445 77.6331 22.379C77.1966 22.3928 76.7622 22.3111 76.3606 22.1395C75.9589 21.9679 75.5995 21.7106 75.3077 21.3856C75.0158 21.0606 74.7985 20.6758 74.6709 20.2581C74.5433 19.8404 74.5084 19.3998 74.5689 18.9672C74.5115 18.5378 74.5485 18.101 74.6774 17.6874C74.8062 17.2738 75.0238 16.8933 75.3149 16.5724C75.606 16.2516 75.9636 15.9981 76.3628 15.8298C76.762 15.6615 77.1931 15.5823 77.6261 15.5978C78.2945 15.5362 78.9607 15.7379 79.4827 16.16C80.0047 16.5821 80.3415 17.1912 80.4213 17.8577H79.1681Z" fill="white"/>
<path d="M81.6992 20.4063C81.6992 19.231 82.5743 18.5534 84.1277 18.4571L85.8963 18.3552V17.7916C85.8963 17.102 85.4403 16.7126 84.5596 16.7126C83.8402 16.7126 83.3418 16.9767 83.1988 17.4383H81.9513C82.083 16.3168 83.1379 15.5975 84.619 15.5975C86.256 15.5975 87.1792 16.4124 87.1792 17.7916V22.2528H85.9388V21.3352H85.8368C85.6299 21.6643 85.3393 21.9326 84.9947 22.1128C84.6502 22.2929 84.264 22.3783 83.8756 22.3603C83.6015 22.3888 83.3245 22.3596 83.0624 22.2745C82.8003 22.1894 82.5589 22.0503 82.3539 21.8662C82.1488 21.6821 81.9846 21.457 81.8719 21.2056C81.7591 20.9541 81.7003 20.6818 81.6992 20.4063ZM85.8963 19.8484V19.3025L84.3019 19.4044C83.4027 19.4646 82.9949 19.7705 82.9949 20.3461C82.9949 20.9337 83.5046 21.2757 84.2056 21.2757C84.411 21.2965 84.6185 21.2757 84.8157 21.2147C85.0129 21.1537 85.1958 21.0536 85.3535 20.9204C85.5113 20.7873 85.6406 20.6237 85.7339 20.4396C85.8271 20.2554 85.8823 20.0543 85.8963 19.8484ZM83.8459 14.6318L85.3511 12.5693H86.862L85.1769 14.6318H83.8459Z" fill="white"/>
<path d="M89.1973 15.7237H90.4377V16.7248H90.534C90.6729 16.3773 90.9183 16.0827 91.235 15.8833C91.5518 15.684 91.9235 15.5902 92.2969 15.6153C92.4899 15.6127 92.6827 15.6308 92.8718 15.6691V16.9408C92.6353 16.8903 92.3943 16.8642 92.1525 16.8629C91.94 16.8438 91.7258 16.8694 91.5237 16.938C91.3217 17.0066 91.1362 17.1168 90.9793 17.2613C90.8223 17.4059 90.6973 17.5817 90.6123 17.7774C90.5274 17.9731 90.4843 18.1845 90.4859 18.3979V22.253H89.1973V15.7237Z" fill="white"/>
<path d="M94.0555 22.9067H95.3746C95.4836 23.3803 96.0288 23.6862 96.8982 23.6862C97.9715 23.6862 98.6073 23.1764 98.6073 22.3134V21.0602H98.5111C98.309 21.411 98.0138 21.6991 97.6582 21.8926C97.3026 22.0862 96.9004 22.1776 96.4961 22.1569C94.8294 22.1569 93.7979 20.8683 93.7979 18.9135C93.7979 16.9227 94.8408 15.6156 96.5088 15.6156C96.9233 15.6012 97.3337 15.7009 97.6953 15.904C98.0569 16.107 98.3558 16.4055 98.5592 16.7669H98.6612V15.724H99.8959V22.307C99.8959 23.8001 98.7263 24.7475 96.8798 24.7475C95.2486 24.7475 94.193 24.0161 94.0555 22.9067ZM98.6314 18.9072C98.6314 17.6065 97.9588 16.7732 96.8614 16.7732C95.7526 16.7732 95.1296 17.6065 95.1296 18.9072C95.1296 20.2085 95.7526 21.0418 96.8614 21.0418C97.9659 21.0418 98.6314 20.2148 98.6314 18.9072Z" fill="white"/>
<path d="M101.577 20.4065C101.577 19.2312 102.452 18.5537 104.006 18.4574L105.774 18.3554V17.7919C105.774 17.1023 105.318 16.7129 104.438 16.7129C103.718 16.7129 103.22 16.9769 103.077 17.4386H101.829C101.961 16.3171 103.016 15.5977 104.497 15.5977C106.134 15.5977 107.057 16.4127 107.057 17.7919V22.253H105.817V21.3354H105.715C105.508 21.6646 105.217 21.9329 104.873 22.113C104.528 22.2931 104.142 22.3786 103.754 22.3606C103.479 22.3891 103.202 22.3599 102.94 22.2747C102.678 22.1896 102.437 22.0505 102.232 21.8664C102.027 21.6823 101.863 21.4573 101.75 21.2058C101.637 20.9544 101.578 20.6821 101.577 20.4065ZM105.774 19.8486V19.3027L104.18 19.4047C103.281 19.4649 102.873 19.7707 102.873 20.3463C102.873 20.934 103.383 21.276 104.084 21.276C104.289 21.2967 104.496 21.276 104.694 21.215C104.891 21.1539 105.074 21.0539 105.231 20.9207C105.389 20.7875 105.519 20.624 105.612 20.4398C105.705 20.2556 105.76 20.0546 105.774 19.8486Z" fill="white"/>
<path d="M109.135 13.1748H110.423V22.2529H109.135V13.1748Z" fill="white"/>
<path d="M112.214 18.9855C112.173 18.5564 112.222 18.1235 112.358 17.7145C112.494 17.3055 112.714 16.9294 113.004 16.6105C113.294 16.2915 113.647 16.0366 114.041 15.8622C114.436 15.6878 114.862 15.5977 115.293 15.5977C115.724 15.5977 116.15 15.6878 116.544 15.8622C116.939 16.0366 117.292 16.2915 117.582 16.6105C117.872 16.9294 118.092 17.3055 118.228 17.7145C118.364 18.1235 118.413 18.5564 118.372 18.9855C118.414 19.415 118.365 19.8485 118.23 20.2582C118.094 20.6679 117.874 21.0446 117.584 21.3642C117.294 21.6838 116.94 21.9392 116.546 22.114C116.151 22.2887 115.724 22.379 115.293 22.379C114.861 22.379 114.435 22.2887 114.04 22.114C113.645 21.9392 113.292 21.6838 113.002 21.3642C112.712 21.0446 112.492 20.6679 112.356 20.2582C112.22 19.8485 112.172 19.415 112.214 18.9855ZM117.047 18.9855C117.047 17.5702 116.411 16.7425 115.295 16.7425C114.175 16.7425 113.545 17.5702 113.545 18.9855C113.545 20.4122 114.175 21.2334 115.295 21.2334C116.411 21.2334 117.047 20.4065 117.047 18.9855Z" fill="white"/>
<path d="M129.165 20.4901C128.99 21.0868 128.611 21.603 128.094 21.9483C127.576 22.2936 126.954 22.4461 126.336 22.3791C125.906 22.3904 125.478 22.308 125.083 22.1376C124.688 21.9672 124.335 21.7128 124.048 21.3922C123.761 21.0715 123.547 20.6923 123.421 20.2807C123.296 19.8692 123.261 19.4352 123.32 19.0089C123.263 18.5814 123.298 18.1465 123.423 17.7337C123.549 17.3209 123.761 16.9399 124.047 16.6164C124.332 16.293 124.684 16.0346 125.078 15.8589C125.472 15.6831 125.899 15.5941 126.33 15.5978C128.147 15.5978 129.243 16.839 129.243 18.8893V19.3389H124.632V19.4111C124.612 19.6507 124.642 19.8919 124.721 20.1192C124.799 20.3465 124.924 20.5549 125.088 20.731C125.252 20.9071 125.451 21.047 125.672 21.1419C125.893 21.2367 126.131 21.2843 126.371 21.2816C126.68 21.3186 126.992 21.2631 127.268 21.1222C127.545 20.9812 127.773 20.7612 127.925 20.4901H129.165ZM124.632 18.3859H127.93C127.947 18.1668 127.917 17.9467 127.843 17.7397C127.769 17.5328 127.653 17.3436 127.501 17.1843C127.35 17.025 127.167 16.8991 126.964 16.8148C126.761 16.7304 126.543 16.6894 126.323 16.6945C126.1 16.6917 125.879 16.7335 125.673 16.8176C125.466 16.9016 125.279 17.0261 125.121 17.1837C124.964 17.3413 124.839 17.5289 124.755 17.7354C124.671 17.9419 124.63 18.163 124.632 18.3859Z" fill="white"/>
<path d="M130.974 15.7233H132.214V16.7605H132.31C132.474 16.388 132.749 16.0757 133.098 15.8672C133.448 15.6586 133.853 15.5643 134.259 15.5972C134.576 15.5734 134.895 15.6213 135.192 15.7374C135.489 15.8535 135.756 16.0349 135.973 16.2682C136.19 16.5014 136.351 16.7805 136.446 17.0847C136.541 17.3889 136.565 17.7105 136.519 18.0257V22.2525H135.23V18.3493C135.23 17.3 134.774 16.7782 133.821 16.7782C133.606 16.7682 133.39 16.8049 133.19 16.8858C132.99 16.9668 132.81 17.0901 132.661 17.2472C132.513 17.4044 132.401 17.5917 132.332 17.7963C132.263 18.001 132.239 18.2181 132.262 18.4328V22.2525H130.974V15.7233Z" fill="white"/>
<path d="M147.575 20.4901C147.4 21.0868 147.021 21.603 146.504 21.9483C145.987 22.2936 145.364 22.4461 144.746 22.3791C144.316 22.3904 143.888 22.308 143.493 22.1376C143.098 21.9672 142.745 21.7128 142.458 21.3922C142.171 21.0715 141.957 20.6923 141.832 20.2807C141.706 19.8692 141.671 19.4352 141.73 19.0089C141.673 18.5814 141.708 18.1465 141.833 17.7337C141.959 17.3209 142.171 16.9399 142.457 16.6164C142.742 16.293 143.094 16.0346 143.488 15.8589C143.882 15.6831 144.309 15.5941 144.74 15.5978C146.557 15.5978 147.653 16.839 147.653 18.8893V19.3389H143.043V19.4111C143.022 19.6507 143.053 19.8919 143.131 20.1192C143.21 20.3465 143.335 20.5549 143.498 20.731C143.662 20.9071 143.861 21.047 144.082 21.1419C144.303 21.2367 144.541 21.2843 144.781 21.2816C145.09 21.3186 145.402 21.2631 145.679 21.1222C145.955 20.9812 146.184 20.7612 146.335 20.4901H147.575ZM143.043 18.3859H146.34C146.357 18.1668 146.327 17.9467 146.253 17.7397C146.179 17.5328 146.063 17.3436 145.911 17.1843C145.76 17.025 145.577 16.8991 145.374 16.8148C145.171 16.7304 144.953 16.6894 144.733 16.6945C144.51 16.6917 144.289 16.7335 144.083 16.8175C143.876 16.9016 143.689 17.0261 143.531 17.1837C143.374 17.3413 143.249 17.5289 143.165 17.7354C143.081 17.9419 143.04 18.163 143.043 18.3859Z" fill="white"/>
<path d="M149.442 13.1748H150.731V22.2529H149.442V13.1748Z" fill="white"/>
</g>
</g>
<defs>
<clipPath id="clip0_174_98">
<rect width="174" height="58" fill="white" transform="translate(0 0.941406)"/>
</clipPath>
</defs>
</svg>
