<svg width="222" height="215" viewBox="0 0 222 215" fill="none" xmlns="http://www.w3.org/2000/svg">
<rect x="9.65234" y="139.662" width="8.27329" height="75.2797" rx="4" fill="#07395B"/>
<rect y="160.967" width="8.27329" height="53.9741" rx="4" fill="white"/>
<rect x="111.69" y="43.0764" width="8.27329" height="171.865" rx="4" fill="#07395B"/>
<rect x="102.037" y="91.3691" width="8.27329" height="123.572" rx="4" fill="white"/>
<rect x="43.6646" y="74.3244" width="8.27329" height="140.617" rx="4" fill="#07395B"/>
<rect x="34.0122" y="114.095" width="8.27329" height="100.846" rx="4" fill="white"/>
<rect x="145.702" y="160.967" width="8.27329" height="53.9741" rx="4" fill="#07395B"/>
<rect x="136.049" y="175.881" width="8.27329" height="39.0602" rx="4" fill="white"/>
<rect x="77.6772" y="0.465271" width="8.27329" height="214.476" rx="4" fill="#07395B"/>
<rect x="68.0251" y="60.8311" width="8.27329" height="154.11" rx="4" fill="white"/>
<rect x="179.714" y="6.14679" width="8.27329" height="208.795" rx="4" fill="#07395B"/>
<rect x="170.062" y="65.0923" width="8.27329" height="149.849" rx="4" fill="white"/>
<rect x="213.727" y="67.9327" width="8.27329" height="147.008" rx="4" fill="#07395B"/>
<rect x="204.074" y="109.124" width="8.27329" height="105.818" rx="4" fill="white"/>
</svg>
