<svg width="50" height="51" viewBox="0 0 50 51" fill="none" xmlns="http://www.w3.org/2000/svg">
<path d="M37.5 17.1079C37.5 24.635 29.4396 32.585 26.2646 35.4308C25.9014 35.7082 25.457 35.8585 25 35.8585C24.543 35.8585 24.0986 35.7082 23.7354 35.4308C20.5625 32.585 12.5 24.635 12.5 17.1079C12.5 13.7927 13.817 10.6133 16.1612 8.26908C18.5054 5.92487 21.6848 4.60791 25 4.60791C28.3152 4.60791 31.4946 5.92487 33.8388 8.26908C36.183 10.6133 37.5 13.7927 37.5 17.1079Z" stroke="white" stroke-width="3" stroke-linecap="round" stroke-linejoin="round"/>
<path d="M24.9999 21.2747C27.3011 21.2747 29.1666 19.4093 29.1666 17.1081C29.1666 14.8069 27.3011 12.9414 24.9999 12.9414C22.6987 12.9414 20.8333 14.8069 20.8333 17.1081C20.8333 19.4093 22.6987 21.2747 24.9999 21.2747Z" stroke="white" stroke-width="3" stroke-linecap="round" stroke-linejoin="round"/>
<path d="M18.1541 29.6079H10.4249C9.98811 29.6081 9.56241 29.7456 9.208 30.0009C8.85358 30.2563 8.5884 30.6165 8.44993 31.0308L4.27493 43.5308C4.17026 43.844 4.14152 44.1775 4.19108 44.504C4.24064 44.8304 4.36708 45.1404 4.55997 45.4083C4.75286 45.6763 5.00668 45.8946 5.30051 46.0452C5.59434 46.1958 5.91975 46.2744 6.24993 46.2746H43.7499C44.0799 46.2743 44.405 46.1957 44.6986 46.0452C44.9922 45.8947 45.2459 45.6767 45.4388 45.4089C45.6316 45.1412 45.7581 44.8316 45.8079 44.5054C45.8576 44.1792 45.8292 43.8459 45.7249 43.5329L41.5583 31.0329C41.42 30.6179 41.1547 30.2569 40.7998 30.0012C40.445 29.7454 40.0186 29.6078 39.5812 29.6079H31.8478" stroke="white" stroke-width="3" stroke-linecap="round" stroke-linejoin="round"/>
</svg>
