<svg width="50" height="51" viewBox="0 0 50 51" fill="none" xmlns="http://www.w3.org/2000/svg">
<path d="M27.9166 5.10815H12.4999C11.3948 5.10815 10.335 5.54714 9.55364 6.32854C8.77224 7.10994 8.33325 8.16975 8.33325 9.27482V42.6082C8.33325 43.7132 8.77224 44.773 9.55364 45.5544C10.335 46.3358 11.3948 46.7748 12.4999 46.7748H37.4999C38.605 46.7748 39.6648 46.3358 40.4462 45.5544C41.2276 44.773 41.6666 43.7132 41.6666 42.6082V27.1915" stroke="white" stroke-width="3" stroke-linecap="round" stroke-linejoin="round"/>
<path d="M4.16675 13.4414H12.5001" stroke="white" stroke-width="3" stroke-linecap="round" stroke-linejoin="round"/>
<path d="M4.16675 21.7747H12.5001" stroke="white" stroke-width="3" stroke-linecap="round" stroke-linejoin="round"/>
<path d="M4.16675 30.1082H12.5001" stroke="white" stroke-width="3" stroke-linecap="round" stroke-linejoin="round"/>
<path d="M4.16675 38.4414H12.5001" stroke="white" stroke-width="3" stroke-linecap="round" stroke-linejoin="round"/>
<path d="M44.5376 12.6621C45.3675 11.8322 45.8338 10.7066 45.8338 9.53298C45.8338 8.35931 45.3675 7.23372 44.5376 6.40381C43.7077 5.5739 42.5821 5.10767 41.4084 5.10767C40.2348 5.10767 39.1092 5.5739 38.2793 6.40381L27.8418 16.8455C27.3465 17.3405 26.9839 17.9524 26.7876 18.6246L25.0439 24.6038C24.9916 24.7831 24.9884 24.9731 25.0348 25.154C25.0811 25.3349 25.1753 25.5 25.3073 25.632C25.4393 25.7641 25.6044 25.8582 25.7853 25.9046C25.9662 25.9509 26.1563 25.9478 26.3355 25.8955L32.3147 24.1517C32.9869 23.9554 33.5988 23.5929 34.0939 23.0976L44.5376 12.6621Z" stroke="white" stroke-width="3" stroke-linecap="round" stroke-linejoin="round"/>
</svg>
