<svg width="195" height="59" viewBox="0 0 195 59" fill="none" xmlns="http://www.w3.org/2000/svg">
<g clip-path="url(#clip0_174_35)">
<mask id="mask0_174_35" style="mask-type:luminance" maskUnits="userSpaceOnUse" x="0" y="0" width="195" height="59">
<path d="M195 0.941406H0V58.9414H195V0.941406Z" fill="white"/>
</mask>
<g mask="url(#mask0_174_35)">
<mask id="mask1_174_35" style="mask-type:luminance" maskUnits="userSpaceOnUse" x="0" y="0" width="195" height="59">
<path d="M195 0.941406H0V58.9414H195V0.941406Z" fill="white"/>
</mask>
<g mask="url(#mask1_174_35)">
<mask id="mask2_174_35" style="mask-type:luminance" maskUnits="userSpaceOnUse" x="0" y="0" width="195" height="59">
<path d="M195 0.941406H0V58.9414H195V0.941406Z" fill="white"/>
</mask>
<g mask="url(#mask2_174_35)">
<path d="M187.777 58.9414H7.22345C3.25101 58.9414 0 55.6779 0 51.6903V8.19255C0 4.20488 3.25101 0.941406 7.22345 0.941406H187.78C191.752 0.941406 195.003 4.20488 195.003 8.19255V51.6933C195.003 55.681 191.752 58.9444 187.78 58.9444" fill="#12100B"/>
<path d="M187.777 2.10196C191.121 2.10196 193.844 4.83515 193.844 8.19255V51.6933C193.844 55.0507 191.121 57.7839 187.777 57.7839H7.22345C3.87887 57.7839 1.15611 55.0507 1.15611 51.6933V8.19255C1.15611 4.83212 3.87585 2.10196 7.22345 2.10196H187.78H187.777ZM187.777 0.941406H7.22345C3.25101 0.941406 0 4.20488 0 8.19255V51.6933C0 55.681 3.25101 58.9444 7.22345 58.9444H187.78C191.752 58.9444 195.003 55.681 195.003 51.6933V8.19255C195 4.20488 191.749 0.941406 187.777 0.941406Z" fill="#AFACAB"/>
<path d="M98.4181 32.4791C95.0222 32.4791 92.2511 35.0729 92.2511 38.6484C92.2511 42.224 95.0191 44.8148 98.4181 44.8148C101.817 44.8148 104.585 42.1967 104.585 38.6484C104.585 35.1001 101.817 32.4791 98.4181 32.4791ZM98.4181 42.3846C96.5556 42.3846 94.9497 40.8423 94.9497 38.6484C94.9497 36.4546 96.5556 34.9092 98.4181 34.9092C100.281 34.9092 101.883 36.4273 101.883 38.6484C101.883 40.8695 100.278 42.3846 98.4181 42.3846ZM84.9643 32.4791C81.5684 32.4791 78.7973 35.0729 78.7973 38.6484C78.7973 42.224 81.5654 44.8148 84.9643 44.8148C88.3632 44.8148 91.1312 42.1967 91.1312 38.6484C91.1312 35.1001 88.3602 32.4791 84.9643 32.4791ZM84.9643 42.3846C83.1048 42.3846 81.4989 40.8423 81.4989 38.6484C81.4989 36.4546 83.1048 34.9092 84.9643 34.9092C86.8237 34.9092 88.4326 36.4273 88.4326 38.6484C88.4326 40.8695 86.8267 42.3846 84.9643 42.3846ZM68.9628 34.3729V36.9879H75.1992C75.012 38.4606 74.526 39.5332 73.7804 40.2817C72.8719 41.1937 71.4531 42.1967 68.9628 42.1967C65.1232 42.1967 62.1197 39.0908 62.1197 35.2365C62.1197 31.3821 65.1202 28.2762 68.9628 28.2762C71.0335 28.2762 72.5458 29.0914 73.6627 30.1428L75.501 28.2975C73.9404 26.8036 71.8697 25.6582 68.9628 25.6582C63.7044 25.6582 59.2822 29.958 59.2822 35.2365C59.2822 40.515 63.7044 44.8148 68.9628 44.8148C71.8003 44.8148 73.9404 43.8785 75.6188 42.127C77.3393 40.3998 77.8767 37.9697 77.8767 36.0061C77.8767 35.4001 77.8314 34.8395 77.7378 34.3729H68.9658H68.9628ZM134.409 36.4061C133.895 35.0274 132.338 32.4821 129.15 32.4821C125.963 32.4821 123.358 34.982 123.358 38.6515C123.358 42.1088 125.963 44.8178 129.452 44.8178C132.268 44.8178 133.895 43.0906 134.572 42.0846L132.477 40.6817C131.776 41.7089 130.825 42.3876 129.452 42.3876C128.079 42.3876 127.101 41.7574 126.473 40.5211L134.686 37.1091L134.409 36.4092V36.4061ZM126.032 38.4606C125.963 36.0758 127.87 34.8638 129.244 34.8638C130.315 34.8638 131.224 35.4001 131.526 36.1728L126.035 38.4636L126.032 38.4606ZM119.352 44.4421H122.05V26.3157H119.352V44.4421ZM114.93 33.8578H114.836C114.232 33.1336 113.067 32.4791 111.603 32.4791C108.53 32.4791 105.717 35.188 105.717 38.6696C105.717 42.1513 108.533 44.8117 111.603 44.8117C113.07 44.8117 114.232 44.1572 114.836 43.4088H114.93V44.2966C114.93 46.6571 113.674 47.9176 111.648 47.9176C109.997 47.9176 108.971 46.7268 108.554 45.7238L106.203 46.7056C106.876 48.3419 108.669 50.3508 111.648 50.3508C114.812 50.3508 117.489 48.4812 117.489 43.9269V32.8548H114.93V33.8608V33.8578ZM111.836 42.3846C109.973 42.3846 108.416 40.821 108.416 38.6727C108.416 36.5243 109.973 34.9123 111.836 34.9123C113.698 34.9123 115.117 36.5001 115.117 38.6727C115.117 40.8453 113.674 42.3846 111.836 42.3846ZM147.053 26.3157H140.597V44.4421H143.289V37.5758H147.053C150.042 37.5758 152.976 35.4031 152.976 31.9457C152.976 28.4884 150.039 26.3157 147.053 26.3157ZM147.123 35.0516H143.289V28.8368H147.123C149.139 28.8368 150.283 30.5125 150.283 31.9427C150.283 33.3729 149.139 35.0486 147.123 35.0486M163.779 32.4488C161.829 32.4488 159.807 33.3123 158.971 35.2213L161.364 36.2243C161.875 35.2213 162.828 34.8941 163.828 34.8941C165.222 34.8941 166.638 35.7334 166.662 37.2243V37.4121C166.173 37.1334 165.129 36.7122 163.852 36.7122C161.274 36.7122 158.648 38.1333 158.648 40.7938C158.648 43.2209 160.764 44.7814 163.13 44.7814C164.944 44.7814 165.941 43.9663 166.568 43.0088H166.662V44.4087H169.264V37.4576C169.264 34.2396 166.873 32.4457 163.782 32.4457M163.456 42.3816C162.572 42.3816 161.34 41.9392 161.34 40.8422C161.34 39.4423 162.874 38.909 164.199 38.909C165.382 38.909 165.941 39.1666 166.662 39.515C166.454 41.1937 165.014 42.3816 163.456 42.3816ZM178.739 32.8427L175.648 40.7029H175.555L172.349 32.8427H169.445L174.254 43.8269L171.513 49.9357H174.323L181.734 32.8427H178.736H178.739ZM154.464 44.4421H157.16V26.3157H154.464V44.4421Z" fill="white"/>
<path d="M29.9265 29.1065L14.5469 45.4905C14.5469 45.4905 14.5469 45.4966 14.5469 45.4996C15.0178 47.2783 16.6357 48.5873 18.5586 48.5873C19.3283 48.5873 20.0467 48.3783 20.6655 48.0146L20.7138 47.9843L38.0254 37.9576L29.9235 29.1035L29.9265 29.1065Z" fill="#E43629"/>
<path d="M45.4841 26.3153L45.469 26.3063L37.995 21.958L29.5762 29.4788L38.0252 37.9572L45.4569 33.6513C46.7609 32.9423 47.6454 31.5636 47.6454 29.9758C47.6454 28.388 46.773 27.0244 45.481 26.3153" fill="#F9BD00"/>
<path d="M14.5462 14.3926C14.4526 14.735 14.4043 15.0956 14.4043 15.4652V44.4183C14.4043 44.791 14.4526 45.1485 14.5462 45.4909L30.451 29.5251L14.5432 14.3926H14.5462Z" fill="#587DBE"/>
<path d="M30.0382 29.9424L37.9982 21.955L20.7078 11.8919C20.0799 11.5131 19.3464 11.2949 18.5616 11.2949C16.6418 11.2949 15.0208 12.607 14.5469 14.3887C14.5469 14.3887 14.5469 14.3887 14.5469 14.3917L30.0412 29.9424H30.0382Z" fill="#30A043"/>
</g>
<path d="M60.3564 10.9532H63.2331C64.1629 10.9532 64.9749 11.1411 65.6661 11.5199C66.3574 11.8986 66.8886 12.4289 67.2629 13.1167C67.6373 13.8016 67.8214 14.5864 67.8214 15.4681C67.8214 16.3499 67.6342 17.1347 67.2629 17.8195C66.8886 18.5043 66.3574 19.0376 65.6661 19.4164C64.9749 19.7952 64.1659 19.9831 63.2331 19.9831H60.3564V10.9502V10.9532ZM63.1939 18.674C64.2172 18.674 65.0111 18.3892 65.5756 17.8226C66.14 17.2559 66.4238 16.4711 66.4238 15.4712C66.4238 14.4712 66.14 13.6864 65.5756 13.1198C65.0111 12.5531 64.2172 12.2683 63.1939 12.2683H61.7359V18.6771H63.1939V18.674Z" fill="white"/>
<path d="M69.6172 10.9531H70.9997V19.986H69.6172V10.9531Z" fill="white"/>
<path d="M73.8892 19.5315C73.2945 19.0951 72.881 18.48 72.6455 17.6891L73.9526 17.1589C74.0854 17.6649 74.3269 18.077 74.668 18.3951C75.0091 18.7133 75.4256 18.8739 75.9116 18.8739C76.3644 18.8739 76.7477 18.7557 77.0617 18.5194C77.3756 18.283 77.5326 17.9588 77.5326 17.5467C77.5326 17.1679 77.3937 16.8558 77.119 16.6074C76.8413 16.3589 76.3644 16.1165 75.6852 15.8832L75.1207 15.6801C74.508 15.462 74.0008 15.1559 73.5933 14.765C73.1858 14.3741 72.9836 13.856 72.9836 13.2075C72.9836 12.7621 73.1043 12.35 73.3428 11.9712C73.5813 11.5925 73.9163 11.2955 74.348 11.0743C74.7796 10.8531 75.2686 10.7471 75.812 10.7471C76.5908 10.7471 77.2156 10.938 77.6835 11.3198C78.1514 11.7016 78.4714 12.1349 78.6374 12.6136L77.3937 13.1439C77.3092 12.8409 77.1341 12.5803 76.8655 12.3621C76.5968 12.144 76.2497 12.0349 75.821 12.0349C75.3924 12.0349 75.0634 12.144 74.7766 12.3621C74.4929 12.5803 74.351 12.8591 74.351 13.1954C74.351 13.5075 74.4778 13.7651 74.7344 13.9711C74.9909 14.1772 75.3864 14.3741 75.9207 14.559L76.5002 14.762C77.27 15.0317 77.8646 15.3802 78.2842 15.8104C78.7038 16.2407 78.9121 16.8104 78.9121 17.5255C78.9121 18.1133 78.7642 18.6073 78.4653 19.0072C78.1665 19.4072 77.7861 19.7042 77.3213 19.8981C76.8564 20.092 76.3795 20.189 75.8935 20.189C75.1479 20.189 74.4778 19.9708 73.8831 19.5315H73.8892Z" fill="white"/>
<path d="M80.7256 10.9531H83.8166C84.3539 10.9531 84.8459 11.0713 85.2927 11.3076C85.7394 11.544 86.0956 11.8713 86.3613 12.2924C86.6239 12.7136 86.7567 13.1863 86.7567 13.7166C86.7567 14.2469 86.6239 14.7226 86.3613 15.1408C86.0956 15.562 85.7425 15.8892 85.2927 16.1256C84.8429 16.3619 84.3509 16.4801 83.8166 16.4801H82.1081V19.986H80.7256V10.9531ZM83.8558 15.165C84.3177 15.165 84.686 15.0196 84.9667 14.7287C85.2474 14.4378 85.3863 14.1014 85.3863 13.7136C85.3863 13.3257 85.2474 12.9894 84.9667 12.6985C84.686 12.4076 84.3147 12.2621 83.8558 12.2621H82.1081V15.165H83.8558Z" fill="white"/>
<path d="M90.2129 19.5556C89.5005 19.1344 88.9421 18.5647 88.5346 17.8466C88.127 17.1284 87.9248 16.3345 87.9248 15.4679C87.9248 14.6013 88.127 13.8104 88.5346 13.0893C88.9421 12.3711 89.5005 11.8015 90.2129 11.3803C90.9253 10.9591 91.7161 10.75 92.5885 10.75C93.4609 10.75 94.2487 10.9591 94.9581 11.3803C95.6644 11.8015 96.2229 12.3711 96.6304 13.0893C97.0379 13.8074 97.2401 14.6013 97.2401 15.4679C97.2401 16.3345 97.0379 17.1254 96.6304 17.8466C96.2229 18.5647 95.6674 19.1344 94.9581 19.5556C94.2487 19.9768 93.4609 20.1859 92.5885 20.1859C91.7161 20.1859 90.9253 19.9768 90.2129 19.5556ZM94.2397 18.4405C94.7377 18.1496 95.1332 17.7466 95.4199 17.2284C95.7097 16.7103 95.8546 16.1255 95.8546 15.4679C95.8546 14.8104 95.7097 14.2256 95.4199 13.7074C95.1301 13.1893 94.7377 12.7863 94.2397 12.4954C93.7416 12.2045 93.1892 12.059 92.5885 12.059C91.9878 12.059 91.4354 12.2045 90.9373 12.4954C90.4393 12.7863 90.0438 13.1893 89.7571 13.7074C89.4673 14.2256 89.3224 14.8104 89.3224 15.4679C89.3224 16.1255 89.4673 16.7103 89.7571 17.2284C90.0469 17.7466 90.4393 18.1496 90.9373 18.4405C91.4354 18.7314 91.9878 18.8768 92.5885 18.8768C93.1892 18.8768 93.7416 18.7314 94.2397 18.4405Z" fill="white"/>
<path d="M99.0215 10.9531H100.655L104.727 17.5891H104.802L104.727 15.8468V10.9531H106.097V19.986H104.663L100.392 13.0106H100.316L100.392 14.7529V19.989H99.0215V10.9561V10.9531Z" fill="white"/>
<path d="M108.373 10.9531H109.756V19.986H108.373V10.9531Z" fill="white"/>
<path d="M112.017 10.9531H115.385C115.862 10.9531 116.306 11.0592 116.717 11.2683C117.127 11.4773 117.453 11.7652 117.692 12.1318C117.93 12.4985 118.051 12.9045 118.051 13.35C118.051 13.7954 117.939 14.1833 117.719 14.5166C117.495 14.8499 117.203 15.1044 116.831 15.2802V15.3438C117.299 15.5044 117.673 15.768 117.951 16.1377C118.226 16.5074 118.365 16.9437 118.365 17.4497C118.365 17.9558 118.238 18.3861 117.981 18.7679C117.725 19.1497 117.384 19.4496 116.952 19.6648C116.52 19.8799 116.049 19.986 115.539 19.986H112.02V10.9531H112.017ZM115.322 14.7499C115.742 14.7499 116.077 14.6226 116.327 14.3651C116.578 14.1075 116.704 13.8136 116.704 13.4772C116.704 13.1409 116.581 12.85 116.333 12.6015C116.086 12.353 115.766 12.2288 115.37 12.2288H113.396V14.7529H115.319L115.322 14.7499ZM115.536 18.6982C115.971 18.6982 116.321 18.5648 116.587 18.3012C116.849 18.0376 116.982 17.7194 116.982 17.3498C116.982 16.9801 116.846 16.6589 116.575 16.3922C116.303 16.1225 115.941 15.9892 115.488 15.9892H113.402V18.7012H115.539L115.536 18.6982Z" fill="white"/>
<path d="M120.185 10.9531H121.567V18.6739H125.437V19.986H120.185V10.9531Z" fill="white"/>
<path d="M126.895 10.9531H132.349V12.2652H128.277V14.8135H131.948V16.1256H128.277V18.6739H132.349V19.986H126.895V10.9531Z" fill="white"/>
<path d="M137.01 10.9531H142.464V12.2652H138.392V14.8135H142.063V16.1256H138.392V18.6739H142.464V19.986H137.01V10.9531Z" fill="white"/>
<path d="M144.399 10.9531H146.032L150.105 17.5891H150.18L150.105 15.8468V10.9531H151.475V19.986H150.041L145.77 13.0106H145.694L145.77 14.7529V19.989H144.399V10.9561V10.9531Z" fill="white"/>
</g>
</g>
</g>
<defs>
<clipPath id="clip0_174_35">
<rect width="195" height="58" fill="white" transform="translate(0 0.941406)"/>
</clipPath>
</defs>
</svg>
