<svg width="62" height="63" viewBox="0 0 62 63" fill="none" xmlns="http://www.w3.org/2000/svg">
<rect x="0.5" y="1.44153" width="61" height="61" rx="29.5" stroke="white"/>
<path d="M37.3333 35.1082V38.5915L39.8666 40.1748" stroke="white" stroke-width="1.5" stroke-linecap="round" stroke-linejoin="round"/>
<path d="M37.3333 19.2749H40.4999C41.3398 19.2749 42.1452 19.6085 42.7391 20.2024C43.333 20.7963 43.6666 21.6017 43.6666 22.4416V23.7589" stroke="white" stroke-width="1.5" stroke-linecap="round" stroke-linejoin="round"/>
<path d="M24.6666 19.2749H21.4999C20.6601 19.2749 19.8546 19.6085 19.2607 20.2024C18.6669 20.7963 18.3333 21.6017 18.3333 22.4416V44.6082C18.3333 45.4481 18.6669 46.2535 19.2607 46.8474C19.8546 47.4413 20.6601 47.7749 21.4999 47.7749H24.6666" stroke="white" stroke-width="1.5" stroke-linecap="round" stroke-linejoin="round"/>
<path d="M37.3333 47.7749C42.58 47.7749 46.8333 43.5216 46.8333 38.2749C46.8333 33.0282 42.58 28.7749 37.3333 28.7749C32.0865 28.7749 27.8333 33.0282 27.8333 38.2749C27.8333 43.5216 32.0865 47.7749 37.3333 47.7749Z" stroke="white" stroke-width="1.5" stroke-linecap="round" stroke-linejoin="round"/>
<path d="M35.7501 16.1082H26.2501C25.3756 16.1082 24.6667 16.817 24.6667 17.6915V20.8582C24.6667 21.7326 25.3756 22.4415 26.2501 22.4415H35.7501C36.6245 22.4415 37.3334 21.7326 37.3334 20.8582V17.6915C37.3334 16.817 36.6245 16.1082 35.7501 16.1082Z" stroke="white" stroke-width="1.5" stroke-linecap="round" stroke-linejoin="round"/>
</svg>
