<?xml version="1.0" encoding="UTF-8"?>
<svg id="Capa_2" data-name="Capa 2" xmlns="http://www.w3.org/2000/svg" viewBox="0 0 943.27 121.97">
  <defs>
    <style>
      .cls-1 {
        fill: #1a92ef;
      }

      .cls-2 {
        fill: #07395b;
      }

      .cls-3 {
        fill: #87f5e7;
      }
    </style>
  </defs>
  <g id="Layer_1" data-name="Layer 1">
    <g>
      <g>
        <path class="cls-2" d="M159.31,105.98V35.94c0-1.1-.89-1.99-1.99-1.99h-22.5c-1.1,0-1.99-.89-1.99-1.99v-11.96c0-1.1.89-1.99,1.99-1.99h66.66c1.1,0,1.99.89,1.99,1.99v11.96c0,1.1-.89,1.99-1.99,1.99h-22.43c-1.1,0-1.99.89-1.99,1.99v70.04c0,1.1-.89,1.99-1.99,1.99h-13.78c-1.1,0-1.99-.89-1.99-1.99Z"/>
        <path class="cls-2" d="M219.62,109.1c-7.28,0-12.96-1.97-17.06-5.9-4.18-3.76-6.27-8.72-6.27-14.87s2.26-11.5,6.77-15.18c4.47-3.68,11.21-5.52,20.2-5.52,5.94,0,10.89.69,14.87,2.07v-5.77c0-2.97-.94-5.33-2.82-7.09-1.92-1.8-4.83-2.7-8.72-2.7-3.6,0-6.34.82-8.22,2.45-1.55,1.35-2.49,2.91-2.82,4.68-.16.88-1.01,1.47-1.91,1.47h-12.32c-1.13,0-2.09-.96-2-2.09.46-5.71,2.86-10.45,7.19-14.22,4.77-4.27,11.58-6.4,20.45-6.4s15.85,2.17,20.83,6.52c5.06,4.56,7.59,10.29,7.59,17.19v42.23c0,1.1-.89,1.99-1.99,1.99h-11.67c-.96,0-1.78-.68-1.95-1.62l-1.01-5.34h-.5c-4.14,5.39-10.35,8.09-18.63,8.09ZM223.76,95.48c4.39,0,7.9-1.19,10.54-3.58,2.55-2.42,3.83-5.33,3.83-8.72v-1.44c-3.76-1.46-8.18-2.2-13.24-2.2-3.68,0-6.5.73-8.47,2.2-2.05,1.42-3.07,3.35-3.07,5.77s.9,4.41,2.7,5.83c1.8,1.42,4.37,2.13,7.72,2.13Z"/>
        <path class="cls-2" d="M288.6,109.1c-9.41,0-16.56-2.13-21.45-6.4-4.4-3.84-6.87-8.86-7.42-15.07-.1-1.14.86-2.12,2-2.12h13.2c.94,0,1.84.62,2,1.55.33,1.98,1.31,3.64,2.95,4.98,2.09,1.72,5,2.57,8.72,2.57,3.39,0,6.13-.61,8.22-1.82,1.92-1.13,2.89-2.57,2.89-4.33,0-3.3-2.57-5.46-7.72-6.46l-10.79-2.01c-13.05-2.47-19.57-9.24-19.57-20.32,0-5.69,2.4-10.39,7.21-14.11,4.73-3.68,11.19-5.52,19.38-5.52s14.84,2.05,19.82,6.15c4.4,3.73,6.83,8.38,7.31,13.97.1,1.13-.86,2.09-2,2.09h-13.05c-.92,0-1.77-.62-1.92-1.52-.3-1.77-1.16-3.32-2.57-4.63-1.92-1.55-4.54-2.32-7.84-2.32-2.97,0-5.27.54-6.9,1.63-1.72,1.13-2.57,2.59-2.57,4.39,0,3.14,2.26,5.14,6.77,6.02l12.23,2.2c6.06,1.13,10.85,3.26,14.36,6.4,3.43,3.05,5.14,7.69,5.14,13.93s-2.66,11.52-7.97,15.24c-5.23,3.68-12.04,5.52-20.45,5.52Z"/>
        <path class="cls-2" d="M356.28,70.88c-.66.73-.69,1.83-.07,2.6l27.2,33.24v1.25h-19.74c-.61,0-1.18-.28-1.56-.75l-19.76-24.94c-1.17-1.48-3.55-.65-3.55,1.23v22.47c0,1.1-.89,1.99-1.99,1.99h-12.33c-1.1,0-1.99-.89-1.99-1.99V14.86c0-1.1.89-1.99,1.99-1.99h12.33c1.1,0,1.99.89,1.99,1.99v47.07c0,1.82,2.25,2.68,3.47,1.33l19.21-21.44c.38-.42.92-.66,1.48-.66h19.12v1.32l-25.82,28.4Z"/>
        <path class="cls-2" d="M409.74,109.1c-10.04,0-17.92-3.24-23.65-9.72-5.73-6.36-8.59-14.57-8.59-24.65s2.78-18.4,8.34-24.97c5.48-6.48,13.34-9.72,23.59-9.72s17.38,3.07,22.9,9.22c5.48,6.11,8.22,13.9,8.22,23.4v4.66c0,1.1-.89,1.99-1.99,1.99h-41.36c-1.15,0-2.11.99-1.99,2.13.41,3.84,1.66,6.92,3.75,9.22,2.42,2.8,6.02,4.2,10.79,4.2,6.43,0,10.61-2.15,12.56-6.46.33-.74,1.01-1.26,1.82-1.26h13.11c1.25,0,2.26,1.16,1.96,2.38-1.28,5.16-4.26,9.59-8.95,13.3-5.27,4.18-12.11,6.27-20.51,6.27ZM397.38,67.88h23.42c1.17,0,2.15-1.01,1.99-2.17-.43-3.01-1.59-5.55-3.45-7.62-2.34-2.47-5.65-3.7-9.91-3.7-4.56,0-8.01,1.23-10.35,3.7-1.97,1.97-3.19,4.43-3.67,7.41-.2,1.23.72,2.38,1.97,2.38Z"/>
        <path class="cls-2" d="M446.03,105.98v-62.83c0-1.1.89-1.99,1.99-1.99h10.76c1,0,1.84.74,1.97,1.73l1.09,8.43h.5c3.43-7.44,9.22-11.17,17.38-11.17h4.83v13.95c0,1.1-.89,1.99-1.99,1.99h-4.03c-5.14,0-9.12,1.65-11.92,4.96-2.84,3.35-4.27,8.07-4.27,14.18v30.76c0,1.1-.89,1.99-1.99,1.99h-12.33c-1.1,0-1.99-.89-1.99-1.99Z"/>
        <path class="cls-2" d="M522.16,109.1c-10.75,0-19.01-2.51-24.78-7.53-5.44-4.63-8.49-10.78-9.16-18.43-.1-1.15.86-2.15,2.01-2.15h7.57c1.01,0,1.82.78,1.95,1.78.67,4.84,2.74,8.66,6.22,11.46,3.8,3.18,9.2,4.77,16.18,4.77,14.64,0,21.95-5.23,21.95-15.68,0-4.1-1.36-7.32-4.08-9.66-2.72-2.22-6.71-3.89-11.98-5.02l-13.11-2.82c-7.9-1.67-13.84-4.49-17.81-8.47-4.01-3.89-6.02-9.16-6.02-15.81,0-7.61,2.74-13.65,8.22-18.13,5.48-4.35,13.13-6.52,22.96-6.52s17.38,2.45,23.15,7.34c5.25,4.56,8.16,10.31,8.74,17.26.1,1.14-.86,2.12-2.01,2.12h-7.5c-1.02,0-1.83-.79-1.97-1.81-.56-4.29-2.34-7.72-5.36-10.3-3.39-2.89-8.49-4.33-15.31-4.33-12.84,0-19.26,4.79-19.26,14.36,0,6.69,5.1,11.14,15.31,13.36l12.17,2.57c17.06,3.47,25.59,12.09,25.59,25.84,0,8.07-3.01,14.36-9.03,18.88-5.98,4.6-14.2,6.9-24.65,6.9Z"/>
        <path class="cls-2" d="M588.02,109.1c-9.74,0-17.15-3.16-22.21-9.47-4.98-6.23-7.46-14.36-7.46-24.4s2.53-18.21,7.59-24.53c5.1-6.36,12.46-9.53,22.08-9.53s17.04,3.18,22.14,9.53c5.06,6.31,7.59,14.49,7.59,24.53s-2.49,18.17-7.46,24.4c-5.06,6.31-12.48,9.47-22.27,9.47ZM588.02,99.5c6.48,0,11.25-2.2,14.3-6.59,2.97-4.43,4.45-10.33,4.45-17.69s-1.48-13.32-4.45-17.88c-3.05-4.35-7.82-6.52-14.3-6.52s-11.06,2.17-14.11,6.52c-3.1,4.56-4.64,10.52-4.64,17.88s1.55,13.26,4.64,17.69c3.09,4.39,7.8,6.59,14.11,6.59Z"/>
        <path class="cls-2" d="M624.71,105.98V14.86c0-1.1.89-1.99,1.99-1.99h6.81c1.1,0,1.99.89,1.99,1.99v91.12c0,1.1-.89,1.99-1.99,1.99h-6.81c-1.1,0-1.99-.89-1.99-1.99Z"/>
        <path class="cls-2" d="M690.04,42.29h6.81c1.1,0,1.99.89,1.99,1.99v39.79c0,7.53-2.49,13.53-7.46,18-4.98,4.6-11.44,6.9-19.38,6.9s-14.41-2.3-19.38-6.9c-4.98-4.47-7.46-10.48-7.46-18v-39.79c0-1.1.89-1.99,1.99-1.99h6.81c1.1,0,1.99.89,1.99,1.99v37.97c0,11.42,5.35,17.12,16.06,17.12s16.06-5.71,16.06-17.12v-37.97c0-1.1.89-1.99,1.99-1.99Z"/>
        <path class="cls-2" d="M731.52,109.1c-6.19,0-10.64-1.48-13.36-4.45-2.63-2.89-3.95-7.25-3.95-13.11v-38.09c0-1.1-.89-1.99-1.99-1.99h-6.94c-1.1,0-1.99-.89-1.99-1.99v-5.18c0-1.1.89-1.99,1.99-1.99h7.19c1.1,0,1.99-.89,1.99-1.99v-10.64c0-.82.51-1.56,1.27-1.85l8.01-3.09h1.25v15.58c0,1.1.89,1.99,1.99,1.99h12.08c1.1,0,1.99.89,1.99,1.99v5.18c0,1.1-.89,1.99-1.99,1.99h-12.08c-1.1,0-1.99.89-1.99,1.99v37.22c0,3.14.69,5.39,2.07,6.77,1.46,1.46,3.64,2.2,6.52,2.2,2.38,0,4.54-.25,6.46-.75h1.25v7.59c0,.95-.66,1.79-1.59,1.96-2.48.45-5.21.68-8.19.68Z"/>
        <path class="cls-2" d="M753.09,29.75c-4.93,0-7.4-2.53-7.4-7.59s2.47-7.46,7.4-7.46c2.38,0,4.22.65,5.52,1.94,1.3,1.51,1.94,3.35,1.94,5.52s-.65,4.01-1.94,5.52c-1.21,1.38-3.05,2.07-5.52,2.07ZM747.7,105.98v-61.7c0-1.1.89-1.99,1.99-1.99h6.81c1.1,0,1.99.89,1.99,1.99v61.7c0,1.1-.89,1.99-1.99,1.99h-6.81c-1.1,0-1.99-.89-1.99-1.99Z"/>
        <path class="cls-2" d="M793.92,109.1c-9.74,0-17.15-3.16-22.21-9.47-4.98-6.23-7.46-14.36-7.46-24.4s2.53-18.21,7.59-24.53c5.1-6.36,12.46-9.53,22.08-9.53s17.04,3.18,22.14,9.53c5.06,6.31,7.59,14.49,7.59,24.53s-2.49,18.17-7.46,24.4c-5.06,6.31-12.48,9.47-22.27,9.47ZM793.92,99.5c6.48,0,11.25-2.2,14.3-6.59,2.97-4.43,4.45-10.33,4.45-17.69s-1.48-13.32-4.45-17.88c-3.05-4.35-7.82-6.52-14.3-6.52s-11.06,2.17-14.11,6.52c-3.1,4.56-4.64,10.52-4.64,17.88s1.55,13.26,4.64,17.69c3.09,4.39,7.8,6.59,14.11,6.59Z"/>
        <path class="cls-2" d="M830.61,105.98v-61.7c0-1.1.89-1.99,1.99-1.99h5.6c1.03,0,1.89.79,1.98,1.82l.72,8.47h.5c3.97-7.61,10.75-11.42,20.32-11.42,7.15,0,12.8,2.13,16.94,6.4,4.06,4.39,6.08,10.31,6.08,17.75v40.67c0,1.1-.89,1.99-1.99,1.99h-6.88c-1.1,0-1.99-.89-1.99-1.99v-38.97c0-10.79-5.04-16.18-15.12-16.18-5.56,0-9.81,1.84-12.73,5.52-3.1,3.72-4.64,8.84-4.64,15.37v34.27c0,1.1-.89,1.99-1.99,1.99h-6.81c-1.1,0-1.99-.89-1.99-1.99Z"/>
        <path class="cls-2" d="M917.3,109.1c-7.9,0-14.28-2.05-19.13-6.15-4.51-3.53-7.05-8.39-7.6-14.56-.1-1.14.86-2.12,2-2.12h6.8c1.05,0,1.86.83,1.97,1.88.37,3.42,1.8,6.06,4.29,7.91,2.93,2.3,6.82,3.45,11.67,3.45,10.04,0,15.05-3.14,15.05-9.41,0-4.77-3.35-7.88-10.04-9.35l-13.11-2.45c-5.44-1.13-9.53-3.26-12.29-6.4-2.93-3.18-4.39-7.17-4.39-11.98,0-5.52,2.2-10.01,6.59-13.49,4.47-3.51,10.25-5.27,17.31-5.27s13.44,1.92,18.25,5.77c4.21,3.39,6.54,7.84,7,13.34.09,1.13-.86,2.09-2,2.09h-6.64c-1.03,0-1.83-.8-1.97-1.81-.45-3.09-1.82-5.52-4.11-7.28-2.8-2.01-6.31-3.01-10.54-3.01s-7.44.82-9.79,2.45c-2.47,1.72-3.7,4.12-3.7,7.21,0,5.06,3.8,8.15,11.42,9.28l10.29,1.88c6.44,1.46,11.14,3.62,14.11,6.46,3.01,3.01,4.52,7.19,4.52,12.55,0,5.86-2.49,10.5-7.46,13.93-4.93,3.39-11.1,5.08-18.5,5.08Z"/>
      </g>
      <circle class="cls-3" cx="39.05" cy="13" r="11.87" transform="translate(1.47 29.78) rotate(-42.47)"/>
      <circle class="cls-1" cx="18.95" cy="31.71" r="11.41" transform="translate(-16.44 21.12) rotate(-42.47)"/>
      <circle class="cls-1" cx="10.97" cy="57.88" r="10.96" transform="translate(-36.21 22.59) rotate(-42.47)"/>
      <circle class="cls-1" cx="17.38" cy="84.88" r="10.51" transform="translate(-52.75 34.01) rotate(-42.47)"/>
      <circle class="cls-1" cx="36.21" cy="104.65" r="10.06" transform="translate(-61.16 51.91) rotate(-42.47)"/>
      <circle class="cls-1" cx="62.41" cy="112.36" r="9.61" transform="translate(-59.49 71.62) rotate(-42.47)"/>
      <circle class="cls-1" cx="87.86" cy="105.64" r="9.15" transform="translate(-48.28 87.05) rotate(-42.47)"/>
      <circle class="cls-1" cx="109.05" cy="86.5" r="8.7" transform="translate(-29.79 96.33) rotate(-42.47)"/>
      <circle class="cls-1" cx="116.42" cy="60.17" r="8.25" transform="translate(-10.08 94.4) rotate(-42.47)"/>
      <circle class="cls-1" cx="109.45" cy="33.45" r="7.8" transform="translate(6.14 82.68) rotate(-42.47)"/>
      <circle class="cls-1" cx="90.11" cy="14.01" r="7.34" transform="translate(14.19 64.52) rotate(-42.47)"/>
      <circle class="cls-1" cx="63.6" cy="6.89" r="6.89" transform="translate(12.04 44.76) rotate(-42.47)"/>
    </g>
  </g>
</svg>