<?xml version="1.0" encoding="UTF-8"?>
<svg id="Capa_2" data-name="Capa 2" xmlns="http://www.w3.org/2000/svg" viewBox="0 0 894.34 223.25">
  <defs>
    <style>
      .cls-1 {
        fill: #1a92ef;
      }

      .cls-2 {
        fill: #07395b;
      }

      .cls-3 {
        fill: #87f5e7;
      }
    </style>
  </defs>
  <g id="Layer_1" data-name="Layer 1">
    <g>
      <g>
        <path class="cls-2" d="M299.01,193.95V65.82c0-2.03-1.65-3.68-3.68-3.68h-41.1c-2.03,0-3.68-1.65-3.68-3.68v-21.81c0-2.03,1.65-3.68,3.68-3.68h121.93c2.03,0,3.68,1.65,3.68,3.68v21.81c0,2.03-1.65,3.68-3.68,3.68h-40.98c-2.03,0-3.68,1.65-3.68,3.68v128.13c0,2.03-1.65,3.68-3.68,3.68h-25.14c-2.03,0-3.68-1.65-3.68-3.68Z"/>
        <path class="cls-2" d="M409.42,199.69c-13.32,0-23.73-3.6-31.23-10.79-7.66-6.89-11.48-15.96-11.48-27.21s4.13-21.05,12.4-27.79c8.19-6.73,20.51-10.1,36.97-10.1,10.87,0,19.94,1.26,27.21,3.79v-10.56c0-5.43-1.72-9.76-5.17-12.97-3.52-3.29-8.84-4.94-15.96-4.94-6.58,0-11.6,1.49-15.04,4.48-2.83,2.47-4.54,5.31-5.15,8.53-.31,1.63-1.87,2.72-3.54,2.72h-22.48c-2.1,0-3.87-1.77-3.7-3.86.85-10.43,5.24-19.09,13.16-25.99,8.73-7.81,21.2-11.71,37.43-11.71s29.01,3.98,38.12,11.94c9.26,8.34,13.89,18.83,13.89,31.46v77.27c0,2.03-1.65,3.68-3.68,3.68h-21.29c-1.77,0-3.29-1.26-3.61-2.99l-1.84-9.75h-.92c-7.58,9.87-18.95,14.81-34.1,14.81ZM417,174.78c8.04,0,14.47-2.18,19.29-6.54,4.67-4.44,7-9.76,7-15.96v-2.64c-6.89-2.68-14.97-4.02-24.23-4.02-6.74,0-11.9,1.34-15.5,4.02-3.75,2.6-5.63,6.12-5.63,10.56s1.65,8.08,4.94,10.68c3.29,2.6,8,3.9,14.12,3.9Z"/>
        <path class="cls-2" d="M535.67,199.69c-17.22,0-30.31-3.9-39.27-11.71-8.05-7.02-12.57-16.2-13.57-27.54-.19-2.11,1.58-3.92,3.7-3.92h24.12c1.72,0,3.37,1.13,3.65,2.83.6,3.63,2.4,6.66,5.4,9.11,3.83,3.14,9.15,4.71,15.96,4.71,6.2,0,11.21-1.11,15.04-3.33,3.52-2.07,5.28-4.71,5.28-7.92,0-6.05-4.71-9.99-14.12-11.83l-19.75-3.67c-23.88-4.52-35.82-16.92-35.82-37.2,0-10.41,4.4-19.02,13.2-25.83,8.65-6.73,20.48-10.1,35.48-10.1s27.17,3.75,36.28,11.25c8.04,6.81,12.5,15.32,13.38,25.53.18,2.09-1.6,3.87-3.7,3.87h-23.82c-1.69,0-3.27-1.14-3.56-2.81-.56-3.23-2.13-6.05-4.7-8.44-3.52-2.83-8.31-4.25-14.35-4.25-5.44,0-9.64,1-12.63,2.99-3.14,2.07-4.71,4.75-4.71,8.04,0,5.74,4.13,9.41,12.4,11.02l22.39,4.02c11.1,2.07,19.86,5.97,26.29,11.71,6.28,5.59,9.41,14.09,9.41,25.49s-4.86,21.09-14.58,27.9c-9.57,6.74-22.05,10.1-37.43,10.1Z"/>
        <path class="cls-2" d="M659.58,129.72c-1.23,1.35-1.28,3.39-.12,4.8l49.77,60.81v2.3h-36.11c-1.12,0-2.19-.51-2.88-1.39l-36.08-45.55c-2.16-2.73-6.56-1.2-6.56,2.28v40.98c0,2.03-1.65,3.68-3.68,3.68h-22.49c-2.03,0-3.68-1.65-3.68-3.68V27.24c0-2.03,1.65-3.68,3.68-3.68h22.49c2.03,0,3.68,1.65,3.68,3.68v86.02c0,3.38,4.17,4.97,6.42,2.46l35.08-39.15c.7-.78,1.69-1.22,2.74-1.22h34.98v2.41l-47.24,51.96Z"/>
        <path class="cls-2" d="M757.41,199.69c-18.37,0-32.8-5.93-43.29-17.8-10.49-11.63-15.73-26.68-15.73-45.12s5.09-33.68,15.27-45.7c10.03-11.86,24.42-17.8,43.17-17.8s31.8,5.63,41.91,16.88c10.03,11.18,15.04,25.45,15.04,42.83v8.49c0,2.03-1.65,3.68-3.68,3.68h-75.62c-2.13,0-3.91,1.82-3.68,3.94.75,7.01,3.04,12.63,6.86,16.84,4.44,5.13,11.02,7.69,19.75,7.69,11.75,0,19.41-3.93,22.98-11.8.62-1.36,1.88-2.33,3.38-2.33h23.93c2.32,0,4.19,2.15,3.63,4.4-2.34,9.43-7.8,17.53-16.37,24.3-9.64,7.66-22.16,11.48-37.55,11.48ZM734.83,124.26h42.78c2.16,0,3.99-1.88,3.68-4.01-.8-5.48-2.9-10.12-6.31-13.9-4.29-4.52-10.33-6.77-18.14-6.77-8.34,0-14.66,2.26-18.94,6.77-3.59,3.59-5.82,8.09-6.7,13.51-.37,2.28,1.33,4.4,3.64,4.4Z"/>
        <path class="cls-2" d="M823.84,193.95v-114.92c0-2.03,1.65-3.68,3.68-3.68h19.61c1.85,0,3.41,1.37,3.65,3.21l2,15.39h.92c6.28-13.62,16.88-20.44,31.8-20.44h8.84v25.49c0,2.03-1.65,3.68-3.68,3.68h-7.34c-9.41,0-16.69,3.02-21.82,9.07-5.21,6.12-7.81,14.77-7.81,25.95v56.26c0,2.03-1.65,3.68-3.68,3.68h-22.49c-2.03,0-3.68-1.65-3.68-3.68Z"/>
      </g>
      <g>
        <circle class="cls-3" cx="71.48" cy="23.8" r="21.72" transform="translate(2.68 54.51) rotate(-42.47)"/>
        <circle class="cls-1" cx="34.68" cy="58.04" r="20.89" transform="translate(-30.09 38.65) rotate(-42.47)"/>
        <circle class="cls-1" cx="20.07" cy="105.95" r="20.07" transform="translate(-66.28 41.36) rotate(-42.47)"/>
        <circle class="cls-1" cx="31.81" cy="155.37" r="19.24" transform="translate(-96.56 62.25) rotate(-42.47)"/>
        <circle class="cls-1" cx="66.29" cy="191.55" r="18.41" transform="translate(-111.95 95.02) rotate(-42.47)"/>
        <circle class="cls-1" cx="114.23" cy="205.67" r="17.58" transform="translate(-108.9 131.1) rotate(-42.47)"/>
        <circle class="cls-1" cx="160.82" cy="193.36" r="16.75" transform="translate(-88.36 159.33) rotate(-42.47)"/>
        <circle class="cls-1" cx="199.61" cy="158.33" r="15.93" transform="translate(-54.53 176.33) rotate(-42.47)"/>
        <circle class="cls-1" cx="213.09" cy="110.14" r="15.1" transform="translate(-18.45 172.79) rotate(-42.47)"/>
        <circle class="cls-1" cx="200.34" cy="61.22" r="14.27" transform="translate(11.23 151.35) rotate(-42.47)"/>
        <circle class="cls-1" cx="164.94" cy="25.64" r="13.44" transform="translate(25.97 118.1) rotate(-42.47)"/>
        <circle class="cls-1" cx="116.42" cy="12.62" r="12.61" transform="translate(22.03 81.92) rotate(-42.47)"/>
      </g>
    </g>
  </g>
</svg>