<svg width="33" height="34" viewBox="0 0 33 34" fill="none" xmlns="http://www.w3.org/2000/svg">
<path fill-rule="evenodd" clip-rule="evenodd" d="M8.4095 6.89928C7.32931 8.52285 6.74545 10.4259 6.72925 12.3759C6.72925 12.6494 6.6206 12.9117 6.4272 13.1051C6.23381 13.2985 5.97151 13.4072 5.698 13.4072C5.4245 13.4072 5.16219 13.2985 4.9688 13.1051C4.7754 12.9117 4.66675 12.6494 4.66675 12.3759C4.66675 9.87066 5.51925 7.50291 6.69763 5.74841C7.28888 4.86841 7.98188 4.11628 8.72438 3.57453C9.45863 3.03828 10.3098 2.66016 11.1994 2.66016C13.3499 2.66016 14.9793 4.19053 16.0174 6.63528C17.0569 9.08141 17.6303 12.6784 17.6303 17.4414C17.6303 22.0862 18.1968 25.3642 19.0795 27.4418C19.9609 29.518 21.032 30.1602 22 30.1602C22.3053 30.1602 22.737 30.0227 23.2581 29.6432C23.7696 29.2692 24.3031 28.7054 24.7885 27.9835C25.8687 26.36 26.4526 24.4569 26.4688 22.5069C26.4688 22.2334 26.5774 21.9711 26.7708 21.7777C26.9642 21.5843 27.2265 21.4757 27.5 21.4757C27.7735 21.4757 28.0358 21.5843 28.2292 21.7777C28.4226 21.9711 28.5313 22.2334 28.5313 22.5069C28.5313 25.0122 27.6801 27.3799 26.5004 29.1344C25.9091 30.0144 25.2175 30.7665 24.4736 31.3083C23.7394 31.8445 22.8883 32.2227 22 32.2227C19.8481 32.2227 18.2188 30.6923 17.1806 28.2475C16.1425 25.8028 15.5678 22.2044 15.5678 17.4414C15.5678 12.7967 15.0013 9.51866 14.1199 7.44103C13.2371 5.36478 12.166 4.72266 11.198 4.72266C10.8928 4.72266 10.461 4.86016 9.94125 5.23966C9.42838 5.61366 8.89625 6.17741 8.4095 6.89928ZM1.71875 17.4414C1.71875 17.1679 1.8274 16.9056 2.0208 16.7122C2.21419 16.5188 2.4765 16.4102 2.75 16.4102H13.0625C13.336 16.4102 13.5983 16.5188 13.7917 16.7122C13.9851 16.9056 14.0938 17.1679 14.0938 17.4414C14.0938 17.7149 13.9851 17.9772 13.7917 18.1706C13.5983 18.364 13.336 18.4727 13.0625 18.4727H2.75C2.4765 18.4727 2.21419 18.364 2.0208 18.1706C1.8274 17.9772 1.71875 17.7149 1.71875 17.4414ZM18.9063 17.4414C18.9063 17.1679 19.0149 16.9056 19.2083 16.7122C19.4017 16.5188 19.664 16.4102 19.9375 16.4102H30.25C30.5235 16.4102 30.7858 16.5188 30.9792 16.7122C31.1726 16.9056 31.2813 17.1679 31.2813 17.4414C31.2813 17.7149 31.1726 17.9772 30.9792 18.1706C30.7858 18.364 30.5235 18.4727 30.25 18.4727H19.9375C19.664 18.4727 19.4017 18.364 19.2083 18.1706C19.0149 17.9772 18.9063 17.7149 18.9063 17.4414Z" fill="black"/>
</svg>
