<svg width="38" height="38" viewBox="0 0 38 38" fill="none" xmlns="http://www.w3.org/2000/svg">
<path fill-rule="evenodd" clip-rule="evenodd" d="M19 13.0625C17.4253 13.0625 15.9151 13.6881 14.8016 14.8016C13.6881 15.9151 13.0625 17.4253 13.0625 19C13.0625 20.5747 13.6881 22.0849 14.8016 23.1984C15.9151 24.3119 17.4253 24.9375 19 24.9375C20.5747 24.9375 22.0849 24.3119 23.1984 23.1984C24.3119 22.0849 24.9375 20.5747 24.9375 19C24.9375 17.4253 24.3119 15.9151 23.1984 14.8016C22.0849 13.6881 20.5747 13.0625 19 13.0625ZM15.4375 19C15.4375 18.0552 15.8128 17.149 16.4809 16.4809C17.149 15.8128 18.0552 15.4375 19 15.4375C19.9448 15.4375 20.851 15.8128 21.5191 16.4809C22.1872 17.149 22.5625 18.0552 22.5625 19C22.5625 19.9448 22.1872 20.851 21.5191 21.5191C20.851 22.1872 19.9448 22.5625 19 22.5625C18.0552 22.5625 17.149 22.1872 16.4809 21.5191C15.8128 20.851 15.4375 19.9448 15.4375 19Z" fill="#1A92EF"/>
<path fill-rule="evenodd" clip-rule="evenodd" d="M19 1.97919C17.8837 1.97919 16.8657 2.28635 15.7526 2.80252C14.6759 3.30444 13.4267 4.04227 11.8671 4.96694L10.6733 5.6731C9.11208 6.59777 7.866 7.3356 6.90492 8.04177C5.91058 8.77327 5.14742 9.5206 4.59642 10.5007C4.04542 11.4808 3.79683 12.5258 3.67808 13.7671C3.5625 14.9704 3.5625 16.4445 3.5625 18.297V19.703C3.5625 21.5555 3.5625 23.028 3.67808 24.2314C3.79683 25.4743 4.04542 26.5209 4.59642 27.4994C5.149 28.4794 5.91058 29.2268 6.90492 29.9583C7.866 30.6644 9.11208 31.4023 10.6733 32.3269L11.8671 33.0331C13.4267 33.9578 14.6743 34.6956 15.7526 35.1975C16.8657 35.7137 17.8837 36.0209 19 36.0209C20.1163 36.0209 21.1343 35.7137 22.2474 35.1975C23.3241 34.6956 24.5733 33.9578 26.1329 33.0331L27.3268 32.3269C28.8879 31.4023 30.134 30.6644 31.0951 29.9583C32.0894 29.2268 32.8526 28.4794 33.4036 27.4994C33.9546 26.5193 34.2032 25.4743 34.3219 24.2329C34.4375 23.0296 34.4375 21.5555 34.4375 19.7046V18.297C34.4375 16.4445 34.4375 14.972 34.3219 13.7687C34.2032 12.5258 33.9546 11.4792 33.4036 10.5007C32.851 9.5206 32.0894 8.77327 31.0951 8.04177C30.134 7.3356 28.8879 6.59777 27.3268 5.6731L26.1329 4.96694C24.5733 4.04227 23.3257 3.30444 22.2474 2.80252C21.1343 2.28635 20.1163 1.97919 19 1.97919ZM13.0229 7.0411C14.649 6.07844 15.7953 5.40235 16.7533 4.95744C17.6874 4.5236 18.3524 4.35419 19 4.35419C19.6476 4.35419 20.3142 4.5236 21.2483 4.95585C22.2047 5.40235 23.351 6.08002 24.9771 7.0411L26.0633 7.68552C27.6893 8.64819 28.8341 9.32744 29.6891 9.95602C30.5219 10.5688 31.0033 11.0802 31.3326 11.666C31.6651 12.2534 31.8551 12.9422 31.958 13.9935C32.0609 15.0702 32.0625 16.4319 32.0625 18.3572V19.6429C32.0625 21.5682 32.0625 22.9283 31.958 24.0049C31.8567 25.0579 31.6651 25.7466 31.3326 26.334C31.0033 26.9199 30.5219 27.4313 29.6891 28.044C28.8341 28.6726 27.6893 29.3519 26.0633 30.3145L24.9771 30.9589C23.351 31.9216 22.2047 32.5977 21.2467 33.0426C20.3126 33.4764 19.6476 33.6459 19 33.6459C18.3524 33.6459 17.6858 33.4764 16.7517 33.0442C15.7953 32.5977 14.649 31.92 13.0229 30.9589L11.9368 30.3145C10.3107 29.3519 9.16592 28.6726 8.31092 28.044C7.47808 27.4313 6.99675 26.9199 6.66742 26.334C6.33492 25.7466 6.14333 25.0579 6.042 24.0065C5.93908 22.9299 5.9375 21.5682 5.9375 19.6429V18.3572C5.9375 16.4319 5.9375 15.0718 6.042 13.9951C6.14333 12.9422 6.33492 12.2534 6.66583 11.666C6.99675 11.0802 7.47808 10.5688 8.3125 9.95602C9.1675 9.32744 10.3107 8.64819 11.9383 7.68552L13.0229 7.0411Z" fill="#1A92EF"/>
</svg>
