<svg width="33" height="34" viewBox="0 0 33 34" fill="none" xmlns="http://www.w3.org/2000/svg">
<path fill-rule="evenodd" clip-rule="evenodd" d="M16.5688 2.16016H16.4312C15.5182 2.16016 14.7304 2.16016 14.0992 2.24541C13.4241 2.33616 12.7751 2.54103 12.2499 3.06628C11.7246 3.59153 11.5198 4.24053 11.429 4.91566C11.3438 5.54678 11.3438 6.33466 11.3438 7.24903V10.5862C11.0122 10.4706 10.6636 10.4112 10.3125 10.4102H6.1875C5.78122 10.4102 5.37892 10.4902 5.00357 10.6457C4.62822 10.8011 4.28717 11.029 3.99989 11.3163C3.71261 11.6036 3.48472 11.9446 3.32925 12.32C3.17377 12.6953 3.09375 13.0976 3.09375 13.5039V29.6602H2.75C2.4765 29.6602 2.21419 29.7688 2.0208 29.9622C1.8274 30.1556 1.71875 30.4179 1.71875 30.6914C1.71875 30.9649 1.8274 31.2272 2.0208 31.4206C2.21419 31.614 2.4765 31.7227 2.75 31.7227H30.25C30.5235 31.7227 30.7858 31.614 30.9792 31.4206C31.1726 31.2272 31.2812 30.9649 31.2812 30.6914C31.2812 30.4179 31.1726 30.1556 30.9792 29.9622C30.7858 29.7688 30.5235 29.6602 30.25 29.6602H29.9062V20.3789C29.9062 19.5584 29.5803 18.7715 29.0001 18.1913C28.4199 17.6111 27.633 17.2852 26.8125 17.2852H22.6875C22.3245 17.287 21.9807 17.3457 21.6562 17.4612V7.24903C21.6562 6.33466 21.6562 5.54678 21.571 4.91566C21.4802 4.24053 21.2754 3.59153 20.7501 3.06628C20.2249 2.54103 19.5772 2.33616 18.9008 2.24541C18.2696 2.16016 17.4817 2.16016 16.5674 2.16016M27.8424 29.6602V20.3789C27.8424 20.1054 27.7337 19.8431 27.5403 19.6497C27.3469 19.4563 27.0846 19.3477 26.8111 19.3477H22.6861C22.4126 19.3477 22.1503 19.4563 21.9569 19.6497C21.7635 19.8431 21.6549 20.1054 21.6549 20.3789V29.6602H27.8424ZM19.5924 29.6602V7.31641C19.5924 6.31541 19.5896 5.66641 19.5264 5.19066C19.4659 4.74378 19.3682 4.60353 19.2899 4.52516C19.2115 4.44678 19.0713 4.34916 18.6244 4.28866C18.1472 4.22541 17.4996 4.22266 16.4986 4.22266C15.4976 4.22266 14.8486 4.22541 14.3729 4.28866C13.926 4.34916 13.7857 4.44678 13.7074 4.52516C13.629 4.60353 13.5314 4.74378 13.4709 5.19066C13.4076 5.66778 13.4049 6.31541 13.4049 7.31641V29.6602H19.5924ZM11.3424 29.6602V13.5039C11.3424 13.2304 11.2337 12.9681 11.0403 12.7747C10.8469 12.5813 10.5846 12.4727 10.3111 12.4727H6.18613C5.91262 12.4727 5.65032 12.5813 5.45692 12.7747C5.26352 12.9681 5.15488 13.2304 5.15488 13.5039V29.6602H11.3424Z" fill="black"/>
</svg>
